<svg xmlns="http://www.w3.org/2000/svg" width="1680" height="1080" viewBox="0 0 1680 1080" role="img" aria-label="Dijkstra layered RSSI topology">
<rect width="100%" height="100%" fill="#ffffff"/>
<text x="42" y="46" font-size="24" font-family="Arial, sans-serif" fill="#111827" font-weight="700">Dijkstra RSSI Layered Topology</text>
<text x="42" y="74" font-size="13" font-family="Arial, sans-serif" fill="#4b5563">图中不显示箭头；深色线为选中的有向最短路径链路，浅灰线为未使用的 RSSI 观测链路。</text>
<line x1="42" y1="108" x2="76" y2="108" stroke="#238b45" stroke-width="4" stroke-linecap="round"/>
<text x="84" y="113" font-size="12" font-family="Arial, sans-serif" fill="#374151">&gt;= -55 dBm</text>
<line x1="174" y1="108" x2="208" y2="108" stroke="#2b6cb0" stroke-width="4" stroke-linecap="round"/>
<text x="216" y="113" font-size="12" font-family="Arial, sans-serif" fill="#374151">-56~-65</text>
<line x1="306" y1="108" x2="340" y2="108" stroke="#b7791f" stroke-width="4" stroke-linecap="round"/>
<text x="348" y="113" font-size="12" font-family="Arial, sans-serif" fill="#374151">-66~-75</text>
<line x1="438" y1="108" x2="472" y2="108" stroke="#c53030" stroke-width="4" stroke-linecap="round"/>
<text x="480" y="113" font-size="12" font-family="Arial, sans-serif" fill="#374151">-76~-85</text>
<line x1="570" y1="108" x2="604" y2="108" stroke="#111827" stroke-width="4" stroke-linecap="round"/>
<text x="612" y="113" font-size="12" font-family="Arial, sans-serif" fill="#374151">route</text>
<g id="observed_edges">
<path d="M369.6,561.6 C725.4,583.6 725.4,388.6 1081.1,410.6" fill="none" stroke="#9ca3af" stroke-width="1.0" opacity="0.12"/>
<path d="M369.6,561.6 C778.6,583.6 778.6,641.0 1187.6,663.0" fill="none" stroke="#9ca3af" stroke-width="1.0" opacity="0.12"/>
<path d="M369.6,561.6 C725.1,583.6 725.1,690.8 1080.6,712.8" fill="none" stroke="#9ca3af" stroke-width="1.0" opacity="0.12"/>
<path d="M369.6,561.6 C659.5,583.6 659.5,703.8 949.4,725.8" fill="none" stroke="#9ca3af" stroke-width="1.0" opacity="0.12"/>
<path d="M819.2,430.7 C884.3,452.7 884.3,375.4 949.4,397.4" fill="none" stroke="#9ca3af" stroke-width="1.0" opacity="0.12"/>
<path d="M819.2,430.7 C950.1,452.7 950.1,388.6 1081.1,410.6" fill="none" stroke="#9ca3af" stroke-width="1.0" opacity="0.12"/>
<path d="M819.2,430.7 C1033.6,452.7 1033.6,539.7 1248.0,561.7" fill="none" stroke="#9ca3af" stroke-width="1.0" opacity="0.12"/>
<path d="M819.2,430.7 C1003.4,452.7 1003.4,641.0 1187.6,663.0" fill="none" stroke="#9ca3af" stroke-width="1.0" opacity="0.12"/>
<path d="M819.2,430.7 C949.9,452.7 949.9,690.8 1080.6,712.8" fill="none" stroke="#9ca3af" stroke-width="1.0" opacity="0.12"/>
<path d="M819.2,430.7 C884.3,452.7 884.3,703.8 949.4,725.8" fill="none" stroke="#9ca3af" stroke-width="1.0" opacity="0.12"/>
<path d="M819.2,430.7 C819.2,452.7 819.2,670.5 819.2,692.5" fill="none" stroke="#9ca3af" stroke-width="1.0" opacity="0.12"/>
<path d="M949.4,397.4 C884.3,375.4 884.3,452.7 819.2,430.7" fill="none" stroke="#9ca3af" stroke-width="1.0" opacity="0.12"/>
<path d="M949.4,397.4 C1098.7,419.4 1098.7,539.7 1248.0,561.7" fill="none" stroke="#9ca3af" stroke-width="1.0" opacity="0.12"/>
<path d="M949.4,397.4 C884.3,419.4 884.3,670.5 819.2,692.5" fill="none" stroke="#9ca3af" stroke-width="1.0" opacity="0.12"/>
<path d="M1081.1,410.6 C1015.3,388.6 1015.3,419.4 949.4,397.4" fill="none" stroke="#9ca3af" stroke-width="1.0" opacity="0.12"/>
<path d="M1081.1,410.6 C1164.6,432.6 1164.6,539.7 1248.0,561.7" fill="none" stroke="#9ca3af" stroke-width="1.0" opacity="0.12"/>
<path d="M1081.1,410.6 C1080.9,432.6 1080.9,690.8 1080.6,712.8" fill="none" stroke="#9ca3af" stroke-width="1.0" opacity="0.12"/>
<path d="M1081.1,410.6 C1015.3,432.6 1015.3,703.8 949.4,725.8" fill="none" stroke="#9ca3af" stroke-width="1.0" opacity="0.12"/>
<path d="M1081.1,410.6 C950.1,432.6 950.1,670.5 819.2,692.5" fill="none" stroke="#9ca3af" stroke-width="1.0" opacity="0.12"/>
<path d="M1188.4,459.8 C1068.9,437.8 1068.9,419.4 949.4,397.4" fill="none" stroke="#9ca3af" stroke-width="1.0" opacity="0.12"/>
<path d="M1188.4,459.8 C1134.7,437.8 1134.7,432.6 1081.1,410.6" fill="none" stroke="#9ca3af" stroke-width="1.0" opacity="0.12"/>
<path d="M1188.4,459.8 C1188.0,481.8 1188.0,641.0 1187.6,663.0" fill="none" stroke="#9ca3af" stroke-width="1.0" opacity="0.12"/>
<path d="M1188.4,459.8 C1134.5,481.8 1134.5,690.8 1080.6,712.8" fill="none" stroke="#9ca3af" stroke-width="1.0" opacity="0.12"/>
<path d="M1248.0,561.7 C1164.6,539.7 1164.6,432.6 1081.1,410.6" fill="none" stroke="#9ca3af" stroke-width="1.0" opacity="0.12"/>
<path d="M1248.0,561.7 C1217.8,583.7 1217.8,641.0 1187.6,663.0" fill="none" stroke="#9ca3af" stroke-width="1.0" opacity="0.12"/>
<path d="M1248.0,561.7 C1164.3,583.7 1164.3,690.8 1080.6,712.8" fill="none" stroke="#9ca3af" stroke-width="1.0" opacity="0.12"/>
<path d="M1248.0,561.7 C1098.7,583.7 1098.7,703.8 949.4,725.8" fill="none" stroke="#9ca3af" stroke-width="1.0" opacity="0.12"/>
<path d="M1248.0,561.7 C1033.6,583.7 1033.6,670.5 819.2,692.5" fill="none" stroke="#9ca3af" stroke-width="1.0" opacity="0.12"/>
<path d="M1187.6,663.0 C1068.5,641.0 1068.5,419.4 949.4,397.4" fill="none" stroke="#9ca3af" stroke-width="1.0" opacity="0.12"/>
<path d="M1187.6,663.0 C1134.4,641.0 1134.4,432.6 1081.1,410.6" fill="none" stroke="#9ca3af" stroke-width="1.0" opacity="0.12"/>
<path d="M1187.6,663.0 C1217.8,641.0 1217.8,583.7 1248.0,561.7" fill="none" stroke="#9ca3af" stroke-width="1.0" opacity="0.12"/>
<path d="M1187.6,663.0 C1134.1,685.0 1134.1,690.8 1080.6,712.8" fill="none" stroke="#9ca3af" stroke-width="1.0" opacity="0.12"/>
<path d="M1187.6,663.0 C1068.5,685.0 1068.5,703.8 949.4,725.8" fill="none" stroke="#9ca3af" stroke-width="1.0" opacity="0.12"/>
<path d="M1080.6,712.8 C1015.0,690.8 1015.0,419.4 949.4,397.4" fill="none" stroke="#9ca3af" stroke-width="1.0" opacity="0.12"/>
<path d="M1080.6,712.8 C1080.9,690.8 1080.9,432.6 1081.1,410.6" fill="none" stroke="#9ca3af" stroke-width="1.0" opacity="0.12"/>
<path d="M1080.6,712.8 C1164.3,690.8 1164.3,583.7 1248.0,561.7" fill="none" stroke="#9ca3af" stroke-width="1.0" opacity="0.12"/>
<path d="M1080.6,712.8 C1134.1,690.8 1134.1,685.0 1187.6,663.0" fill="none" stroke="#9ca3af" stroke-width="1.0" opacity="0.12"/>
<path d="M1080.6,712.8 C1015.0,734.8 1015.0,703.8 949.4,725.8" fill="none" stroke="#9ca3af" stroke-width="1.0" opacity="0.12"/>
<path d="M1080.6,712.8 C949.9,734.8 949.9,670.5 819.2,692.5" fill="none" stroke="#9ca3af" stroke-width="1.0" opacity="0.12"/>
<path d="M949.4,725.8 C884.3,703.8 884.3,452.7 819.2,430.7" fill="none" stroke="#9ca3af" stroke-width="1.0" opacity="0.12"/>
<path d="M949.4,725.8 C1015.3,703.8 1015.3,432.6 1081.1,410.6" fill="none" stroke="#9ca3af" stroke-width="1.0" opacity="0.12"/>
<path d="M949.4,725.8 C1098.7,703.8 1098.7,583.7 1248.0,561.7" fill="none" stroke="#9ca3af" stroke-width="1.0" opacity="0.12"/>
<path d="M949.4,725.8 C1068.5,703.8 1068.5,685.0 1187.6,663.0" fill="none" stroke="#9ca3af" stroke-width="1.0" opacity="0.12"/>
<path d="M949.4,725.8 C1015.0,703.8 1015.0,734.8 1080.6,712.8" fill="none" stroke="#9ca3af" stroke-width="1.0" opacity="0.12"/>
<path d="M949.4,725.8 C884.3,747.8 884.3,670.5 819.2,692.5" fill="none" stroke="#9ca3af" stroke-width="1.0" opacity="0.12"/>
<path d="M819.2,692.5 C1003.4,670.5 1003.4,685.0 1187.6,663.0" fill="none" stroke="#9ca3af" stroke-width="1.0" opacity="0.12"/>
<path d="M819.2,692.5 C949.9,670.5 949.9,734.8 1080.6,712.8" fill="none" stroke="#9ca3af" stroke-width="1.0" opacity="0.12"/>
<path d="M819.2,692.5 C884.3,670.5 884.3,747.8 949.4,725.8" fill="none" stroke="#9ca3af" stroke-width="1.0" opacity="0.12"/>
</g>
<g id="route_edges">
<line x1="397.4" y1="558.1" x2="1160.6" y2="463.3" stroke="#111827" stroke-width="3.2" opacity="0.95"/>
<line x1="779.0" y1="510.7" x2="769.9" y2="437.3" stroke="#2b6cb0" stroke-width="0.9" opacity="0.65"/>
<rect x="697.9" y="424.3" width="144" height="22" rx="4" fill="#ffffff" stroke="#2b6cb0" stroke-width="1.2"/>
<text x="769.9" y="439.3" text-anchor="middle" font-size="11" font-family="Arial, sans-serif" fill="#111827">良  -59dBm  w=3</text>
<line x1="396.5" y1="569.4" x2="792.3" y2="684.7" stroke="#111827" stroke-width="3.2" opacity="0.95"/>
<line x1="594.4" y1="627.1" x2="583.8" y2="663.5" stroke="#c53030" stroke-width="0.9" opacity="0.65"/>
<rect x="511.8" y="650.5" width="144" height="22" rx="4" fill="#ffffff" stroke="#c53030" stroke-width="1.2"/>
<text x="583.8" y="665.5" text-anchor="middle" font-size="11" font-family="Arial, sans-serif" fill="#111827">弱  -78dBm  w=12</text>
<line x1="977.3" y1="400.2" x2="1053.3" y2="407.8" stroke="#111827" stroke-width="3.2" opacity="0.95"/>
<line x1="1015.3" y1="404.0" x2="1011.5" y2="441.8" stroke="#c53030" stroke-width="0.9" opacity="0.65"/>
<rect x="939.5" y="428.8" width="144" height="22" rx="4" fill="#ffffff" stroke="#c53030" stroke-width="1.2"/>
<text x="1011.5" y="443.8" text-anchor="middle" font-size="11" font-family="Arial, sans-serif" fill="#111827">弱  -78dBm  w=12</text>
<line x1="968.1" y1="418.2" x2="1168.9" y2="642.2" stroke="#111827" stroke-width="3.2" opacity="0.95"/>
<line x1="1068.5" y1="530.2" x2="1013.4" y2="579.6" stroke="#b7791f" stroke-width="0.9" opacity="0.65"/>
<rect x="941.4" y="566.6" width="144" height="22" rx="4" fill="#ffffff" stroke="#b7791f" stroke-width="1.2"/>
<text x="1013.4" y="581.6" text-anchor="middle" font-size="11" font-family="Arial, sans-serif" fill="#111827">中  -70dBm  w=6</text>
<line x1="960.2" y1="423.2" x2="1069.8" y2="686.9" stroke="#111827" stroke-width="3.2" opacity="0.95"/>
<line x1="1015.0" y1="555.1" x2="1050.1" y2="540.5" stroke="#c53030" stroke-width="0.9" opacity="0.65"/>
<rect x="978.1" y="527.5" width="144" height="22" rx="4" fill="#ffffff" stroke="#c53030" stroke-width="1.2"/>
<text x="1050.1" y="542.5" text-anchor="middle" font-size="11" font-family="Arial, sans-serif" fill="#111827">弱  -80dBm  w=12</text>
<line x1="949.4" y1="425.4" x2="949.4" y2="697.8" stroke="#111827" stroke-width="3.2" opacity="0.95"/>
<line x1="949.4" y1="561.6" x2="893.4" y2="561.6" stroke="#c53030" stroke-width="0.9" opacity="0.65"/>
<rect x="821.4" y="548.6" width="144" height="22" rx="4" fill="#ffffff" stroke="#c53030" stroke-width="1.2"/>
<text x="893.4" y="563.6" text-anchor="middle" font-size="11" font-family="Arial, sans-serif" fill="#111827">弱  -76dBm  w=12</text>
<line x1="1053.2" y1="412.8" x2="847.1" y2="428.6" stroke="#111827" stroke-width="3.2" opacity="0.95"/>
<line x1="950.1" y1="420.7" x2="944.5" y2="346.9" stroke="#c53030" stroke-width="0.9" opacity="0.65"/>
<rect x="872.5" y="333.9" width="144" height="22" rx="4" fill="#ffffff" stroke="#c53030" stroke-width="1.2"/>
<text x="944.5" y="348.9" text-anchor="middle" font-size="11" font-family="Arial, sans-serif" fill="#111827">弱  -84dBm  w=12</text>
<line x1="1106.6" y1="422.3" x2="1162.9" y2="448.2" stroke="#111827" stroke-width="3.2" opacity="0.95"/>
<line x1="1134.7" y1="435.2" x2="1158.1" y2="384.3" stroke="#c53030" stroke-width="0.9" opacity="0.65"/>
<rect x="1086.1" y="371.3" width="144" height="22" rx="4" fill="#ffffff" stroke="#c53030" stroke-width="1.2"/>
<text x="1158.1" y="386.3" text-anchor="middle" font-size="11" font-family="Arial, sans-serif" fill="#111827">弱  -79dBm  w=12</text>
<line x1="1169.7" y1="480.7" x2="968.1" y2="705.0" stroke="#111827" stroke-width="3.2" opacity="0.95"/>
<line x1="1068.9" y1="592.8" x2="1040.6" y2="567.4" stroke="#b7791f" stroke-width="0.9" opacity="0.65"/>
<rect x="968.6" y="554.4" width="144" height="22" rx="4" fill="#ffffff" stroke="#b7791f" stroke-width="1.2"/>
<text x="1040.6" y="569.4" text-anchor="middle" font-size="11" font-family="Arial, sans-serif" fill="#111827">中  -74dBm  w=6</text>
<line x1="1223.5" y1="548.2" x2="973.9" y2="410.9" stroke="#111827" stroke-width="3.2" opacity="0.95"/>
<line x1="1098.7" y1="479.5" x2="1125.7" y2="430.5" stroke="#b7791f" stroke-width="0.9" opacity="0.65"/>
<rect x="1053.7" y="417.5" width="144" height="22" rx="4" fill="#ffffff" stroke="#b7791f" stroke-width="1.2"/>
<text x="1125.7" y="432.5" text-anchor="middle" font-size="11" font-family="Arial, sans-serif" fill="#111827">中  -66dBm  w=3</text>
<line x1="1159.7" y1="665.3" x2="847.1" y2="690.3" stroke="#111827" stroke-width="3.2" opacity="0.95"/>
<line x1="1003.4" y1="677.8" x2="997.5" y2="604.0" stroke="#b7791f" stroke-width="0.9" opacity="0.65"/>
<rect x="925.5" y="591.0" width="144" height="22" rx="4" fill="#ffffff" stroke="#b7791f" stroke-width="1.2"/>
<text x="997.5" y="606.0" text-anchor="middle" font-size="11" font-family="Arial, sans-serif" fill="#111827">中  -72dBm  w=6</text>
<line x1="949.4" y1="697.8" x2="949.4" y2="425.4" stroke="#111827" stroke-width="3.2" opacity="0.95"/>
<line x1="949.4" y1="561.6" x2="893.4" y2="561.6" stroke="#b7791f" stroke-width="0.9" opacity="0.65"/>
<rect x="821.4" y="548.6" width="144" height="22" rx="4" fill="#ffffff" stroke="#b7791f" stroke-width="1.2"/>
<text x="893.4" y="563.6" text-anchor="middle" font-size="11" font-family="Arial, sans-serif" fill="#111827">中  -72dBm  w=6</text>
<line x1="830.5" y1="666.9" x2="938.1" y2="423.0" stroke="#111827" stroke-width="3.2" opacity="0.95"/>
<line x1="884.3" y1="544.9" x2="816.6" y2="515.1" stroke="#b7791f" stroke-width="0.9" opacity="0.65"/>
<rect x="744.6" y="502.1" width="144" height="22" rx="4" fill="#ffffff" stroke="#b7791f" stroke-width="1.2"/>
<text x="816.6" y="517.1" text-anchor="middle" font-size="11" font-family="Arial, sans-serif" fill="#111827">中  -73dBm  w=6</text>
<line x1="838.2" y1="672.0" x2="1062.1" y2="431.2" stroke="#111827" stroke-width="3.2" opacity="0.95"/>
<line x1="950.1" y1="551.6" x2="909.1" y2="513.5" stroke="#c53030" stroke-width="0.9" opacity="0.65"/>
<rect x="837.1" y="500.5" width="144" height="22" rx="4" fill="#ffffff" stroke="#c53030" stroke-width="1.2"/>
<text x="909.1" y="515.5" text-anchor="middle" font-size="11" font-family="Arial, sans-serif" fill="#111827">弱  -76dBm  w=12</text>
<line x1="845.9" y1="684.3" x2="1221.2" y2="569.8" stroke="#111827" stroke-width="3.2" opacity="0.95"/>
<line x1="1033.6" y1="627.1" x2="1022.5" y2="590.7" stroke="#c53030" stroke-width="0.9" opacity="0.65"/>
<rect x="950.5" y="577.7" width="144" height="22" rx="4" fill="#ffffff" stroke="#c53030" stroke-width="1.2"/>
<text x="1022.5" y="592.7" text-anchor="middle" font-size="11" font-family="Arial, sans-serif" fill="#111827">弱  -82dBm  w=12</text>
</g>
<g id="nodes">
<circle cx="369.6" cy="561.6" r="30" fill="#111827" stroke="#111827" stroke-width="3"/>
<text x="369.6" y="566.6" text-anchor="middle" font-size="15" font-family="Arial, sans-serif" fill="#ffffff" font-weight="700">00</text>
<circle cx="819.2" cy="430.7" r="25" fill="#ffffff" stroke="#111827" stroke-width="3"/>
<text x="819.2" y="435.7" text-anchor="middle" font-size="15" font-family="Arial, sans-serif" fill="#111827" font-weight="700">01</text>
<circle cx="949.4" cy="397.4" r="25" fill="#ffffff" stroke="#111827" stroke-width="3"/>
<text x="949.4" y="402.4" text-anchor="middle" font-size="15" font-family="Arial, sans-serif" fill="#111827" font-weight="700">02</text>
<circle cx="1081.1" cy="410.6" r="25" fill="#ffffff" stroke="#111827" stroke-width="3"/>
<text x="1081.1" y="415.6" text-anchor="middle" font-size="15" font-family="Arial, sans-serif" fill="#111827" font-weight="700">03</text>
<circle cx="1188.4" cy="459.8" r="25" fill="#ffffff" stroke="#111827" stroke-width="3"/>
<text x="1188.4" y="464.8" text-anchor="middle" font-size="15" font-family="Arial, sans-serif" fill="#111827" font-weight="700">04</text>
<circle cx="1248.0" cy="561.7" r="25" fill="#ffffff" stroke="#111827" stroke-width="3"/>
<text x="1248.0" y="566.7" text-anchor="middle" font-size="15" font-family="Arial, sans-serif" fill="#111827" font-weight="700">05</text>
<circle cx="1187.6" cy="663.0" r="25" fill="#ffffff" stroke="#111827" stroke-width="3"/>
<text x="1187.6" y="668.0" text-anchor="middle" font-size="15" font-family="Arial, sans-serif" fill="#111827" font-weight="700">06</text>
<circle cx="1080.6" cy="712.8" r="25" fill="#ffffff" stroke="#111827" stroke-width="3"/>
<text x="1080.6" y="717.8" text-anchor="middle" font-size="15" font-family="Arial, sans-serif" fill="#111827" font-weight="700">07</text>
<circle cx="949.4" cy="725.8" r="25" fill="#ffffff" stroke="#111827" stroke-width="3"/>
<text x="949.4" y="730.8" text-anchor="middle" font-size="15" font-family="Arial, sans-serif" fill="#111827" font-weight="700">09</text>
<circle cx="819.2" cy="692.5" r="25" fill="#ffffff" stroke="#111827" stroke-width="3"/>
<text x="819.2" y="697.5" text-anchor="middle" font-size="15" font-family="Arial, sans-serif" fill="#111827" font-weight="700">0A</text>
</g>
</svg>
