<svg xmlns="http://www.w3.org/2000/svg" width="1680" height="1080" viewBox="0 0 1680 1080">
<rect width="100%" height="100%" fill="#ffffff"/>
<text x="42" y="48" font-size="24" font-family="Arial, sans-serif" fill="#111827" font-weight="700">D3QN_MPNN RSSI Topology</text>
<text x="42" y="76" font-size="13" font-family="Arial, sans-serif" fill="#4b5563">图中不显示箭头；深色线为 D3QN 选中路径，浅灰线为未使用 RSSI 链路。</text>
<g id="edges">
<line x1="302.4" y1="561.6" x2="552.2" y2="379.4" stroke="#9ca3af" stroke-width="1.0" opacity="0.16"/>
<line x1="302.4" y1="561.6" x2="797.7" y2="243.5" stroke="#9ca3af" stroke-width="1.0" opacity="0.16"/>
<line x1="302.4" y1="561.6" x2="1113.9" y2="235.1" stroke="#111827" stroke-width="3.2" opacity="0.92"/>
<rect x="644.1" y="366.4" width="128" height="22" rx="4" fill="#ffffff" stroke="#b7791f"/>
<text x="708.1" y="382.4" text-anchor="middle" font-size="11" font-family="Arial, sans-serif" fill="#111827">中 -66dBm w=6</text>
<line x1="302.4" y1="561.6" x2="1374.2" y2="357.5" stroke="#111827" stroke-width="3.2" opacity="0.92"/>
<rect x="774.3" y="427.5" width="128" height="22" rx="4" fill="#ffffff" stroke="#b7791f"/>
<text x="838.3" y="443.5" text-anchor="middle" font-size="11" font-family="Arial, sans-serif" fill="#111827">中 -66dBm w=6</text>
<line x1="302.4" y1="561.6" x2="1474.4" y2="561.6" stroke="#9ca3af" stroke-width="1.0" opacity="0.16"/>
<line x1="302.4" y1="561.6" x2="1374.2" y2="765.7" stroke="#9ca3af" stroke-width="1.0" opacity="0.16"/>
<line x1="302.4" y1="561.6" x2="1113.9" y2="888.1" stroke="#9ca3af" stroke-width="1.0" opacity="0.16"/>
<line x1="302.4" y1="561.6" x2="797.7" y2="879.7" stroke="#9ca3af" stroke-width="1.0" opacity="0.16"/>
<line x1="302.4" y1="561.6" x2="552.2" y2="743.8" stroke="#9ca3af" stroke-width="1.0" opacity="0.16"/>
<line x1="552.2" y1="379.4" x2="797.7" y2="243.5" stroke="#9ca3af" stroke-width="1.0" opacity="0.16"/>
<line x1="552.2" y1="379.4" x2="1113.9" y2="235.1" stroke="#9ca3af" stroke-width="1.0" opacity="0.16"/>
<line x1="552.2" y1="379.4" x2="1374.2" y2="357.5" stroke="#9ca3af" stroke-width="1.0" opacity="0.16"/>
<line x1="552.2" y1="379.4" x2="1474.4" y2="561.6" stroke="#9ca3af" stroke-width="1.0" opacity="0.16"/>
<line x1="552.2" y1="379.4" x2="1374.2" y2="765.7" stroke="#9ca3af" stroke-width="1.0" opacity="0.16"/>
<line x1="552.2" y1="379.4" x2="1113.9" y2="888.1" stroke="#9ca3af" stroke-width="1.0" opacity="0.16"/>
<line x1="552.2" y1="379.4" x2="797.7" y2="879.7" stroke="#9ca3af" stroke-width="1.0" opacity="0.16"/>
<line x1="552.2" y1="379.4" x2="552.2" y2="743.8" stroke="#9ca3af" stroke-width="1.0" opacity="0.16"/>
<line x1="797.7" y1="243.5" x2="552.2" y2="379.4" stroke="#9ca3af" stroke-width="1.0" opacity="0.16"/>
<line x1="797.7" y1="243.5" x2="1113.9" y2="235.1" stroke="#9ca3af" stroke-width="1.0" opacity="0.16"/>
<line x1="797.7" y1="243.5" x2="1374.2" y2="357.5" stroke="#9ca3af" stroke-width="1.0" opacity="0.16"/>
<line x1="797.7" y1="243.5" x2="1474.4" y2="561.6" stroke="#9ca3af" stroke-width="1.0" opacity="0.16"/>
<line x1="797.7" y1="243.5" x2="1374.2" y2="765.7" stroke="#9ca3af" stroke-width="1.0" opacity="0.16"/>
<line x1="797.7" y1="243.5" x2="1113.9" y2="888.1" stroke="#9ca3af" stroke-width="1.0" opacity="0.16"/>
<line x1="797.7" y1="243.5" x2="797.7" y2="879.7" stroke="#9ca3af" stroke-width="1.0" opacity="0.16"/>
<line x1="797.7" y1="243.5" x2="552.2" y2="743.8" stroke="#9ca3af" stroke-width="1.0" opacity="0.16"/>
<line x1="1113.9" y1="235.1" x2="552.2" y2="379.4" stroke="#111827" stroke-width="3.2" opacity="0.92"/>
<rect x="769.1" y="275.3" width="128" height="22" rx="4" fill="#ffffff" stroke="#7a7f87"/>
<text x="833.1" y="291.3" text-anchor="middle" font-size="11" font-family="Arial, sans-serif" fill="#111827">差 -94dBm w=24</text>
<line x1="1113.9" y1="235.1" x2="797.7" y2="243.5" stroke="#9ca3af" stroke-width="1.0" opacity="0.16"/>
<line x1="1113.9" y1="235.1" x2="1374.2" y2="357.5" stroke="#9ca3af" stroke-width="1.0" opacity="0.16"/>
<line x1="1113.9" y1="235.1" x2="1474.4" y2="561.6" stroke="#111827" stroke-width="3.2" opacity="0.92"/>
<rect x="1230.1" y="366.4" width="128" height="22" rx="4" fill="#ffffff" stroke="#c53030"/>
<text x="1294.1" y="382.4" text-anchor="middle" font-size="11" font-family="Arial, sans-serif" fill="#111827">弱 -78dBm w=12</text>
<line x1="1113.9" y1="235.1" x2="1374.2" y2="765.7" stroke="#111827" stroke-width="3.2" opacity="0.92"/>
<rect x="1180.1" y="468.4" width="128" height="22" rx="4" fill="#ffffff" stroke="#b7791f"/>
<text x="1244.1" y="484.4" text-anchor="middle" font-size="11" font-family="Arial, sans-serif" fill="#111827">中 -73dBm w=6</text>
<line x1="1113.9" y1="235.1" x2="1113.9" y2="888.1" stroke="#9ca3af" stroke-width="1.0" opacity="0.16"/>
<line x1="1113.9" y1="235.1" x2="797.7" y2="879.7" stroke="#111827" stroke-width="3.2" opacity="0.92"/>
<rect x="891.8" y="525.4" width="128" height="22" rx="4" fill="#ffffff" stroke="#b7791f"/>
<text x="955.8" y="541.4" text-anchor="middle" font-size="11" font-family="Arial, sans-serif" fill="#111827">中 -74dBm w=6</text>
<line x1="1113.9" y1="235.1" x2="552.2" y2="743.8" stroke="#9ca3af" stroke-width="1.0" opacity="0.16"/>
<line x1="1374.2" y1="357.5" x2="552.2" y2="379.4" stroke="#9ca3af" stroke-width="1.0" opacity="0.16"/>
<line x1="1374.2" y1="357.5" x2="797.7" y2="243.5" stroke="#9ca3af" stroke-width="1.0" opacity="0.16"/>
<line x1="1374.2" y1="357.5" x2="1113.9" y2="235.1" stroke="#9ca3af" stroke-width="1.0" opacity="0.16"/>
<line x1="1374.2" y1="357.5" x2="1474.4" y2="561.6" stroke="#9ca3af" stroke-width="1.0" opacity="0.16"/>
<line x1="1374.2" y1="357.5" x2="1374.2" y2="765.7" stroke="#9ca3af" stroke-width="1.0" opacity="0.16"/>
<line x1="1374.2" y1="357.5" x2="1113.9" y2="888.1" stroke="#9ca3af" stroke-width="1.0" opacity="0.16"/>
<line x1="1374.2" y1="357.5" x2="797.7" y2="879.7" stroke="#9ca3af" stroke-width="1.0" opacity="0.16"/>
<line x1="1374.2" y1="357.5" x2="552.2" y2="743.8" stroke="#111827" stroke-width="3.2" opacity="0.92"/>
<rect x="899.2" y="518.6" width="128" height="22" rx="4" fill="#ffffff" stroke="#2b6cb0"/>
<text x="963.2" y="534.6" text-anchor="middle" font-size="11" font-family="Arial, sans-serif" fill="#111827">良 -63dBm w=3</text>
<line x1="1474.4" y1="561.6" x2="552.2" y2="379.4" stroke="#9ca3af" stroke-width="1.0" opacity="0.16"/>
<line x1="1474.4" y1="561.6" x2="797.7" y2="243.5" stroke="#9ca3af" stroke-width="1.0" opacity="0.16"/>
<line x1="1474.4" y1="561.6" x2="1113.9" y2="235.1" stroke="#9ca3af" stroke-width="1.0" opacity="0.16"/>
<line x1="1474.4" y1="561.6" x2="1374.2" y2="357.5" stroke="#9ca3af" stroke-width="1.0" opacity="0.16"/>
<line x1="1474.4" y1="561.6" x2="1374.2" y2="765.7" stroke="#9ca3af" stroke-width="1.0" opacity="0.16"/>
<line x1="1474.4" y1="561.6" x2="1113.9" y2="888.1" stroke="#9ca3af" stroke-width="1.0" opacity="0.16"/>
<line x1="1474.4" y1="561.6" x2="797.7" y2="879.7" stroke="#9ca3af" stroke-width="1.0" opacity="0.16"/>
<line x1="1474.4" y1="561.6" x2="552.2" y2="743.8" stroke="#9ca3af" stroke-width="1.0" opacity="0.16"/>
<line x1="1374.2" y1="765.7" x2="552.2" y2="379.4" stroke="#9ca3af" stroke-width="1.0" opacity="0.16"/>
<line x1="1374.2" y1="765.7" x2="797.7" y2="243.5" stroke="#111827" stroke-width="3.2" opacity="0.92"/>
<rect x="1022.0" y="472.6" width="128" height="22" rx="4" fill="#ffffff" stroke="#b7791f"/>
<text x="1086.0" y="488.6" text-anchor="middle" font-size="11" font-family="Arial, sans-serif" fill="#111827">中 -70dBm w=6</text>
<line x1="1374.2" y1="765.7" x2="1113.9" y2="235.1" stroke="#9ca3af" stroke-width="1.0" opacity="0.16"/>
<line x1="1374.2" y1="765.7" x2="1374.2" y2="357.5" stroke="#9ca3af" stroke-width="1.0" opacity="0.16"/>
<line x1="1374.2" y1="765.7" x2="1474.4" y2="561.6" stroke="#9ca3af" stroke-width="1.0" opacity="0.16"/>
<line x1="1374.2" y1="765.7" x2="1113.9" y2="888.1" stroke="#111827" stroke-width="3.2" opacity="0.92"/>
<rect x="1180.1" y="794.9" width="128" height="22" rx="4" fill="#ffffff" stroke="#b7791f"/>
<text x="1244.1" y="810.9" text-anchor="middle" font-size="11" font-family="Arial, sans-serif" fill="#111827">中 -72dBm w=6</text>
<line x1="1374.2" y1="765.7" x2="797.7" y2="879.7" stroke="#9ca3af" stroke-width="1.0" opacity="0.16"/>
<line x1="1374.2" y1="765.7" x2="552.2" y2="743.8" stroke="#111827" stroke-width="3.2" opacity="0.92"/>
<rect x="899.2" y="722.8" width="128" height="22" rx="4" fill="#ffffff" stroke="#c53030"/>
<text x="963.2" y="738.8" text-anchor="middle" font-size="11" font-family="Arial, sans-serif" fill="#111827">弱 -83dBm w=12</text>
<line x1="1113.9" y1="888.1" x2="552.2" y2="379.4" stroke="#9ca3af" stroke-width="1.0" opacity="0.16"/>
<line x1="1113.9" y1="888.1" x2="797.7" y2="243.5" stroke="#9ca3af" stroke-width="1.0" opacity="0.16"/>
<line x1="1113.9" y1="888.1" x2="1113.9" y2="235.1" stroke="#9ca3af" stroke-width="1.0" opacity="0.16"/>
<line x1="1113.9" y1="888.1" x2="1374.2" y2="357.5" stroke="#9ca3af" stroke-width="1.0" opacity="0.16"/>
<line x1="1113.9" y1="888.1" x2="1474.4" y2="561.6" stroke="#9ca3af" stroke-width="1.0" opacity="0.16"/>
<line x1="1113.9" y1="888.1" x2="1374.2" y2="765.7" stroke="#9ca3af" stroke-width="1.0" opacity="0.16"/>
<line x1="1113.9" y1="888.1" x2="797.7" y2="879.7" stroke="#9ca3af" stroke-width="1.0" opacity="0.16"/>
<line x1="1113.9" y1="888.1" x2="552.2" y2="743.8" stroke="#9ca3af" stroke-width="1.0" opacity="0.16"/>
<line x1="797.7" y1="879.7" x2="552.2" y2="379.4" stroke="#9ca3af" stroke-width="1.0" opacity="0.16"/>
<line x1="797.7" y1="879.7" x2="797.7" y2="243.5" stroke="#9ca3af" stroke-width="1.0" opacity="0.16"/>
<line x1="797.7" y1="879.7" x2="1113.9" y2="235.1" stroke="#9ca3af" stroke-width="1.0" opacity="0.16"/>
<line x1="797.7" y1="879.7" x2="1374.2" y2="357.5" stroke="#9ca3af" stroke-width="1.0" opacity="0.16"/>
<line x1="797.7" y1="879.7" x2="1474.4" y2="561.6" stroke="#9ca3af" stroke-width="1.0" opacity="0.16"/>
<line x1="797.7" y1="879.7" x2="1374.2" y2="765.7" stroke="#111827" stroke-width="3.2" opacity="0.92"/>
<rect x="1022.0" y="790.7" width="128" height="22" rx="4" fill="#ffffff" stroke="#b7791f"/>
<text x="1086.0" y="806.7" text-anchor="middle" font-size="11" font-family="Arial, sans-serif" fill="#111827">中 -72dBm w=6</text>
<line x1="797.7" y1="879.7" x2="1113.9" y2="888.1" stroke="#9ca3af" stroke-width="1.0" opacity="0.16"/>
<line x1="797.7" y1="879.7" x2="552.2" y2="743.8" stroke="#9ca3af" stroke-width="1.0" opacity="0.16"/>
<line x1="552.2" y1="743.8" x2="552.2" y2="379.4" stroke="#9ca3af" stroke-width="1.0" opacity="0.16"/>
<line x1="552.2" y1="743.8" x2="797.7" y2="243.5" stroke="#9ca3af" stroke-width="1.0" opacity="0.16"/>
<line x1="552.2" y1="743.8" x2="1113.9" y2="235.1" stroke="#111827" stroke-width="3.2" opacity="0.92"/>
<rect x="769.1" y="457.4" width="128" height="22" rx="4" fill="#ffffff" stroke="#b7791f"/>
<text x="833.1" y="473.4" text-anchor="middle" font-size="11" font-family="Arial, sans-serif" fill="#111827">中 -75dBm w=6</text>
<line x1="552.2" y1="743.8" x2="1374.2" y2="357.5" stroke="#111827" stroke-width="3.2" opacity="0.92"/>
<rect x="899.2" y="518.6" width="128" height="22" rx="4" fill="#ffffff" stroke="#c53030"/>
<text x="963.2" y="534.6" text-anchor="middle" font-size="11" font-family="Arial, sans-serif" fill="#111827">弱 -78dBm w=12</text>
<line x1="552.2" y1="743.8" x2="1474.4" y2="561.6" stroke="#9ca3af" stroke-width="1.0" opacity="0.16"/>
<line x1="552.2" y1="743.8" x2="1374.2" y2="765.7" stroke="#9ca3af" stroke-width="1.0" opacity="0.16"/>
<line x1="552.2" y1="743.8" x2="1113.9" y2="888.1" stroke="#9ca3af" stroke-width="1.0" opacity="0.16"/>
<line x1="552.2" y1="743.8" x2="797.7" y2="879.7" stroke="#9ca3af" stroke-width="1.0" opacity="0.16"/>
</g>
<g id="nodes">
<circle cx="302.4" cy="561.6" r="32" fill="#111827" stroke="#111827" stroke-width="3"/>
<text x="302.4" y="566.6" text-anchor="middle" font-size="15" font-family="Arial, sans-serif" fill="#ffffff" font-weight="700">00</text>
<circle cx="552.2" cy="379.4" r="26" fill="#ffffff" stroke="#111827" stroke-width="3"/>
<text x="552.2" y="384.4" text-anchor="middle" font-size="15" font-family="Arial, sans-serif" fill="#111827" font-weight="700">01</text>
<circle cx="797.7" cy="243.5" r="26" fill="#ffffff" stroke="#111827" stroke-width="3"/>
<text x="797.7" y="248.5" text-anchor="middle" font-size="15" font-family="Arial, sans-serif" fill="#111827" font-weight="700">02</text>
<circle cx="1113.9" cy="235.1" r="26" fill="#ffffff" stroke="#111827" stroke-width="3"/>
<text x="1113.9" y="240.1" text-anchor="middle" font-size="15" font-family="Arial, sans-serif" fill="#111827" font-weight="700">03</text>
<circle cx="1374.2" cy="357.5" r="26" fill="#ffffff" stroke="#111827" stroke-width="3"/>
<text x="1374.2" y="362.5" text-anchor="middle" font-size="15" font-family="Arial, sans-serif" fill="#111827" font-weight="700">04</text>
<circle cx="1474.4" cy="561.6" r="26" fill="#ffffff" stroke="#111827" stroke-width="3"/>
<text x="1474.4" y="566.6" text-anchor="middle" font-size="15" font-family="Arial, sans-serif" fill="#111827" font-weight="700">05</text>
<circle cx="1374.2" cy="765.7" r="26" fill="#ffffff" stroke="#111827" stroke-width="3"/>
<text x="1374.2" y="770.7" text-anchor="middle" font-size="15" font-family="Arial, sans-serif" fill="#111827" font-weight="700">06</text>
<circle cx="1113.9" cy="888.1" r="26" fill="#ffffff" stroke="#111827" stroke-width="3"/>
<text x="1113.9" y="893.1" text-anchor="middle" font-size="15" font-family="Arial, sans-serif" fill="#111827" font-weight="700">07</text>
<circle cx="797.7" cy="879.7" r="26" fill="#ffffff" stroke="#111827" stroke-width="3"/>
<text x="797.7" y="884.7" text-anchor="middle" font-size="15" font-family="Arial, sans-serif" fill="#111827" font-weight="700">08</text>
<circle cx="552.2" cy="743.8" r="26" fill="#ffffff" stroke="#111827" stroke-width="3"/>
<text x="552.2" y="748.8" text-anchor="middle" font-size="15" font-family="Arial, sans-serif" fill="#111827" font-weight="700">0A</text>
</g></svg>
