<svg xmlns="http://www.w3.org/2000/svg" width="1680" height="1080" viewBox="0 0 1680 1080">
<rect width="100%" height="100%" fill="#ffffff"/>
<text x="42" y="48" font-size="24" font-family="Arial, sans-serif" fill="#111827" font-weight="700">D3QN_MPNN RSSI Topology</text>
<text x="42" y="76" font-size="13" font-family="Arial, sans-serif" fill="#4b5563">图中不显示箭头；深色线为 D3QN 选中路径，浅灰线为未使用 RSSI 链路。</text>
<g id="edges">
<line x1="302.4" y1="561.6" x2="764.7" y2="253.0" stroke="#9ca3af" stroke-width="1.0" opacity="0.16"/>
<line x1="302.4" y1="561.6" x2="1044.0" y2="224.9" stroke="#111827" stroke-width="3.2" opacity="0.92"/>
<rect x="609.2" y="361.3" width="128" height="22" rx="4" fill="#ffffff" stroke="#2b6cb0"/>
<text x="673.2" y="377.3" text-anchor="middle" font-size="11" font-family="Arial, sans-serif" fill="#111827">良 -65dBm w=3</text>
<line x1="302.4" y1="561.6" x2="1454.1" y2="657.6" stroke="#9ca3af" stroke-width="1.0" opacity="0.16"/>
<line x1="302.4" y1="561.6" x2="1301.1" y2="819.0" stroke="#9ca3af" stroke-width="1.0" opacity="0.16"/>
<line x1="302.4" y1="561.6" x2="1044.0" y2="898.3" stroke="#9ca3af" stroke-width="1.0" opacity="0.16"/>
<line x1="302.4" y1="561.6" x2="764.7" y2="870.2" stroke="#111827" stroke-width="3.2" opacity="0.92"/>
<rect x="469.5" y="683.9" width="128" height="22" rx="4" fill="#ffffff" stroke="#b7791f"/>
<text x="533.5" y="699.9" text-anchor="middle" font-size="11" font-family="Arial, sans-serif" fill="#111827">中 -75dBm w=6</text>
<line x1="552.2" y1="379.4" x2="302.4" y2="561.6" stroke="#9ca3af" stroke-width="1.0" opacity="0.16"/>
<line x1="552.2" y1="379.4" x2="764.7" y2="253.0" stroke="#9ca3af" stroke-width="1.0" opacity="0.16"/>
<line x1="552.2" y1="379.4" x2="1044.0" y2="224.9" stroke="#111827" stroke-width="3.2" opacity="0.92"/>
<rect x="734.1" y="270.2" width="128" height="22" rx="4" fill="#ffffff" stroke="#c53030"/>
<text x="798.1" y="286.2" text-anchor="middle" font-size="11" font-family="Arial, sans-serif" fill="#111827">弱 -81dBm w=12</text>
<line x1="552.2" y1="379.4" x2="1301.1" y2="304.2" stroke="#111827" stroke-width="3.2" opacity="0.92"/>
<rect x="862.7" y="309.8" width="128" height="22" rx="4" fill="#ffffff" stroke="#c53030"/>
<text x="926.7" y="325.8" text-anchor="middle" font-size="11" font-family="Arial, sans-serif" fill="#111827">弱 -82dBm w=12</text>
<line x1="552.2" y1="379.4" x2="1454.1" y2="465.6" stroke="#9ca3af" stroke-width="1.0" opacity="0.16"/>
<line x1="552.2" y1="379.4" x2="1044.0" y2="898.3" stroke="#111827" stroke-width="3.2" opacity="0.92"/>
<rect x="734.1" y="606.9" width="128" height="22" rx="4" fill="#ffffff" stroke="#c53030"/>
<text x="798.1" y="622.9" text-anchor="middle" font-size="11" font-family="Arial, sans-serif" fill="#111827">弱 -79dBm w=12</text>
<line x1="552.2" y1="379.4" x2="764.7" y2="870.2" stroke="#111827" stroke-width="3.2" opacity="0.92"/>
<rect x="594.5" y="592.8" width="128" height="22" rx="4" fill="#ffffff" stroke="#c53030"/>
<text x="658.5" y="608.8" text-anchor="middle" font-size="11" font-family="Arial, sans-serif" fill="#111827">弱 -81dBm w=12</text>
<line x1="552.2" y1="379.4" x2="552.2" y2="743.8" stroke="#111827" stroke-width="3.2" opacity="0.92"/>
<rect x="488.2" y="529.6" width="128" height="22" rx="4" fill="#ffffff" stroke="#c53030"/>
<text x="552.2" y="545.6" text-anchor="middle" font-size="11" font-family="Arial, sans-serif" fill="#111827">弱 -85dBm w=12</text>
<line x1="764.7" y1="253.0" x2="552.2" y2="379.4" stroke="#111827" stroke-width="3.2" opacity="0.92"/>
<rect x="594.5" y="284.2" width="128" height="22" rx="4" fill="#ffffff" stroke="#c53030"/>
<text x="658.5" y="300.2" text-anchor="middle" font-size="11" font-family="Arial, sans-serif" fill="#111827">弱 -82dBm w=12</text>
<line x1="764.7" y1="253.0" x2="1044.0" y2="224.9" stroke="#9ca3af" stroke-width="1.0" opacity="0.16"/>
<line x1="764.7" y1="253.0" x2="552.2" y2="743.8" stroke="#9ca3af" stroke-width="1.0" opacity="0.16"/>
<line x1="1044.0" y1="224.9" x2="302.4" y2="561.6" stroke="#9ca3af" stroke-width="1.0" opacity="0.16"/>
<line x1="1044.0" y1="224.9" x2="552.2" y2="379.4" stroke="#9ca3af" stroke-width="1.0" opacity="0.16"/>
<line x1="1044.0" y1="224.9" x2="764.7" y2="253.0" stroke="#9ca3af" stroke-width="1.0" opacity="0.16"/>
<line x1="1044.0" y1="224.9" x2="1301.1" y2="304.2" stroke="#9ca3af" stroke-width="1.0" opacity="0.16"/>
<line x1="1044.0" y1="224.9" x2="1454.1" y2="657.6" stroke="#9ca3af" stroke-width="1.0" opacity="0.16"/>
<line x1="1044.0" y1="224.9" x2="1301.1" y2="819.0" stroke="#9ca3af" stroke-width="1.0" opacity="0.16"/>
<line x1="1044.0" y1="224.9" x2="1044.0" y2="898.3" stroke="#9ca3af" stroke-width="1.0" opacity="0.16"/>
<line x1="1044.0" y1="224.9" x2="764.7" y2="870.2" stroke="#9ca3af" stroke-width="1.0" opacity="0.16"/>
<line x1="1044.0" y1="224.9" x2="552.2" y2="743.8" stroke="#111827" stroke-width="3.2" opacity="0.92"/>
<rect x="734.1" y="452.3" width="128" height="22" rx="4" fill="#ffffff" stroke="#c53030"/>
<text x="798.1" y="468.3" text-anchor="middle" font-size="11" font-family="Arial, sans-serif" fill="#111827">弱 -84dBm w=12</text>
<line x1="1301.1" y1="819.0" x2="552.2" y2="379.4" stroke="#9ca3af" stroke-width="1.0" opacity="0.16"/>
<line x1="1301.1" y1="819.0" x2="1044.0" y2="224.9" stroke="#9ca3af" stroke-width="1.0" opacity="0.16"/>
<line x1="1301.1" y1="819.0" x2="1301.1" y2="304.2" stroke="#9ca3af" stroke-width="1.0" opacity="0.16"/>
<line x1="1301.1" y1="819.0" x2="1454.1" y2="465.6" stroke="#111827" stroke-width="3.2" opacity="0.92"/>
<rect x="1313.6" y="610.3" width="128" height="22" rx="4" fill="#ffffff" stroke="#c53030"/>
<text x="1377.6" y="626.3" text-anchor="middle" font-size="11" font-family="Arial, sans-serif" fill="#111827">弱 -79dBm w=12</text>
<line x1="1301.1" y1="819.0" x2="1454.1" y2="657.6" stroke="#9ca3af" stroke-width="1.0" opacity="0.16"/>
<line x1="1301.1" y1="819.0" x2="1044.0" y2="898.3" stroke="#9ca3af" stroke-width="1.0" opacity="0.16"/>
<line x1="1301.1" y1="819.0" x2="552.2" y2="743.8" stroke="#9ca3af" stroke-width="1.0" opacity="0.16"/>
<line x1="1044.0" y1="898.3" x2="764.7" y2="253.0" stroke="#9ca3af" stroke-width="1.0" opacity="0.16"/>
<line x1="1044.0" y1="898.3" x2="1044.0" y2="224.9" stroke="#9ca3af" stroke-width="1.0" opacity="0.16"/>
<line x1="1044.0" y1="898.3" x2="1301.1" y2="304.2" stroke="#9ca3af" stroke-width="1.0" opacity="0.16"/>
<line x1="1044.0" y1="898.3" x2="1454.1" y2="465.6" stroke="#9ca3af" stroke-width="1.0" opacity="0.16"/>
<line x1="1044.0" y1="898.3" x2="1454.1" y2="657.6" stroke="#111827" stroke-width="3.2" opacity="0.92"/>
<rect x="1185.0" y="745.9" width="128" height="22" rx="4" fill="#ffffff" stroke="#b7791f"/>
<text x="1249.0" y="761.9" text-anchor="middle" font-size="11" font-family="Arial, sans-serif" fill="#111827">中 -75dBm w=6</text>
<line x1="1044.0" y1="898.3" x2="1301.1" y2="819.0" stroke="#9ca3af" stroke-width="1.0" opacity="0.16"/>
<line x1="1044.0" y1="898.3" x2="552.2" y2="743.8" stroke="#9ca3af" stroke-width="1.0" opacity="0.16"/>
</g>
<g id="nodes">
<circle cx="302.4" cy="561.6" r="32" fill="#111827" stroke="#111827" stroke-width="3"/>
<text x="302.4" y="566.6" text-anchor="middle" font-size="15" font-family="Arial, sans-serif" fill="#ffffff" font-weight="700">00</text>
<circle cx="552.2" cy="379.4" r="26" fill="#ffffff" stroke="#111827" stroke-width="3"/>
<text x="552.2" y="384.4" text-anchor="middle" font-size="15" font-family="Arial, sans-serif" fill="#111827" font-weight="700">01</text>
<circle cx="764.7" cy="253.0" r="26" fill="#ffffff" stroke="#111827" stroke-width="3"/>
<text x="764.7" y="258.0" text-anchor="middle" font-size="15" font-family="Arial, sans-serif" fill="#111827" font-weight="700">02</text>
<circle cx="1044.0" cy="224.9" r="26" fill="#ffffff" stroke="#111827" stroke-width="3"/>
<text x="1044.0" y="229.9" text-anchor="middle" font-size="15" font-family="Arial, sans-serif" fill="#111827" font-weight="700">03</text>
<circle cx="1301.1" cy="304.2" r="26" fill="#ffffff" stroke="#111827" stroke-width="3"/>
<text x="1301.1" y="309.2" text-anchor="middle" font-size="15" font-family="Arial, sans-serif" fill="#111827" font-weight="700">04</text>
<circle cx="1454.1" cy="465.6" r="26" fill="#ffffff" stroke="#111827" stroke-width="3"/>
<text x="1454.1" y="470.6" text-anchor="middle" font-size="15" font-family="Arial, sans-serif" fill="#111827" font-weight="700">05</text>
<circle cx="1454.1" cy="657.6" r="26" fill="#ffffff" stroke="#111827" stroke-width="3"/>
<text x="1454.1" y="662.6" text-anchor="middle" font-size="15" font-family="Arial, sans-serif" fill="#111827" font-weight="700">06</text>
<circle cx="1301.1" cy="819.0" r="26" fill="#ffffff" stroke="#111827" stroke-width="3"/>
<text x="1301.1" y="824.0" text-anchor="middle" font-size="15" font-family="Arial, sans-serif" fill="#111827" font-weight="700">07</text>
<circle cx="1044.0" cy="898.3" r="26" fill="#ffffff" stroke="#111827" stroke-width="3"/>
<text x="1044.0" y="903.3" text-anchor="middle" font-size="15" font-family="Arial, sans-serif" fill="#111827" font-weight="700">08</text>
<circle cx="764.7" cy="870.2" r="26" fill="#ffffff" stroke="#111827" stroke-width="3"/>
<text x="764.7" y="875.2" text-anchor="middle" font-size="15" font-family="Arial, sans-serif" fill="#111827" font-weight="700">09</text>
<circle cx="552.2" cy="743.8" r="26" fill="#ffffff" stroke="#111827" stroke-width="3"/>
<text x="552.2" y="748.8" text-anchor="middle" font-size="15" font-family="Arial, sans-serif" fill="#111827" font-weight="700">10</text>
</g></svg>
