<svg xmlns="http://www.w3.org/2000/svg" width="1680" height="1080" viewBox="0 0 1680 1080" role="img" aria-label="Dijkstra layered RSSI topology">
<rect width="100%" height="100%" fill="#ffffff"/>
<text x="42" y="46" font-size="24" font-family="Arial, sans-serif" fill="#111827" font-weight="700">Dijkstra RSSI Layered Topology</text>
<text x="42" y="74" font-size="13" font-family="Arial, sans-serif" fill="#4b5563">图中不显示箭头；深色线为选中的有向最短路径链路，浅灰线为未使用的 RSSI 观测链路。</text>
<line x1="42" y1="108" x2="76" y2="108" stroke="#238b45" stroke-width="4" stroke-linecap="round"/>
<text x="84" y="113" font-size="12" font-family="Arial, sans-serif" fill="#374151">&gt;= -55 dBm</text>
<line x1="174" y1="108" x2="208" y2="108" stroke="#2b6cb0" stroke-width="4" stroke-linecap="round"/>
<text x="216" y="113" font-size="12" font-family="Arial, sans-serif" fill="#374151">-56~-65</text>
<line x1="306" y1="108" x2="340" y2="108" stroke="#b7791f" stroke-width="4" stroke-linecap="round"/>
<text x="348" y="113" font-size="12" font-family="Arial, sans-serif" fill="#374151">-66~-75</text>
<line x1="438" y1="108" x2="472" y2="108" stroke="#c53030" stroke-width="4" stroke-linecap="round"/>
<text x="480" y="113" font-size="12" font-family="Arial, sans-serif" fill="#374151">-76~-85</text>
<line x1="570" y1="108" x2="604" y2="108" stroke="#111827" stroke-width="4" stroke-linecap="round"/>
<text x="612" y="113" font-size="12" font-family="Arial, sans-serif" fill="#374151">route</text>
<g id="observed_edges">
<path d="M369.6,561.6 C648.5,583.6 648.5,375.2 927.4,397.2" fill="none" stroke="#9ca3af" stroke-width="1.0" opacity="0.12"/>
<path d="M369.6,561.6 C707.5,583.6 707.5,376.2 1045.4,398.2" fill="none" stroke="#9ca3af" stroke-width="1.0" opacity="0.12"/>
<path d="M369.6,561.6 C811.2,583.6 811.2,480.4 1252.9,502.4" fill="none" stroke="#9ca3af" stroke-width="1.0" opacity="0.12"/>
<path d="M369.6,561.6 C763.1,583.6 763.1,668.9 1156.6,690.9" fill="none" stroke="#9ca3af" stroke-width="1.0" opacity="0.12"/>
<path d="M369.6,561.6 C706.8,583.6 706.8,704.3 1044.0,726.3" fill="none" stroke="#9ca3af" stroke-width="1.0" opacity="0.12"/>
<path d="M814.6,432.0 C871.0,454.0 871.0,375.2 927.4,397.2" fill="none" stroke="#9ca3af" stroke-width="1.0" opacity="0.12"/>
<path d="M814.6,432.0 C930.0,454.0 930.0,376.2 1045.4,398.2" fill="none" stroke="#9ca3af" stroke-width="1.0" opacity="0.12"/>
<path d="M814.6,432.0 C986.6,454.0 986.6,409.4 1158.6,431.4" fill="none" stroke="#9ca3af" stroke-width="1.0" opacity="0.12"/>
<path d="M814.6,432.0 C1033.8,454.0 1033.8,480.4 1252.9,502.4" fill="none" stroke="#9ca3af" stroke-width="1.0" opacity="0.12"/>
<path d="M814.6,432.0 C1032.9,454.0 1032.9,598.4 1251.2,620.4" fill="none" stroke="#9ca3af" stroke-width="1.0" opacity="0.12"/>
<path d="M814.6,432.0 C985.6,454.0 985.6,668.9 1156.6,690.9" fill="none" stroke="#9ca3af" stroke-width="1.0" opacity="0.12"/>
<path d="M814.6,432.0 C929.3,454.0 929.3,704.3 1044.0,726.3" fill="none" stroke="#9ca3af" stroke-width="1.0" opacity="0.12"/>
<path d="M814.6,432.0 C870.3,454.0 870.3,704.3 926.0,726.3" fill="none" stroke="#9ca3af" stroke-width="1.0" opacity="0.12"/>
<path d="M927.4,397.2 C986.4,419.2 986.4,376.2 1045.4,398.2" fill="none" stroke="#9ca3af" stroke-width="1.0" opacity="0.12"/>
<path d="M927.4,397.2 C870.4,419.2 870.4,668.8 813.5,690.8" fill="none" stroke="#9ca3af" stroke-width="1.0" opacity="0.12"/>
<path d="M1045.4,398.2 C930.0,376.2 930.0,454.0 814.6,432.0" fill="none" stroke="#9ca3af" stroke-width="1.0" opacity="0.12"/>
<path d="M1045.4,398.2 C1102.0,420.2 1102.0,409.4 1158.6,431.4" fill="none" stroke="#9ca3af" stroke-width="1.0" opacity="0.12"/>
<path d="M1045.4,398.2 C1149.1,420.2 1149.1,480.4 1252.9,502.4" fill="none" stroke="#9ca3af" stroke-width="1.0" opacity="0.12"/>
<path d="M1045.4,398.2 C1148.3,420.2 1148.3,598.4 1251.2,620.4" fill="none" stroke="#9ca3af" stroke-width="1.0" opacity="0.12"/>
<path d="M1045.4,398.2 C1044.7,420.2 1044.7,704.3 1044.0,726.3" fill="none" stroke="#9ca3af" stroke-width="1.0" opacity="0.12"/>
<path d="M1045.4,398.2 C929.4,420.2 929.4,668.8 813.5,690.8" fill="none" stroke="#9ca3af" stroke-width="1.0" opacity="0.12"/>
<path d="M1158.6,431.4 C1102.0,409.4 1102.0,420.2 1045.4,398.2" fill="none" stroke="#9ca3af" stroke-width="1.0" opacity="0.12"/>
<path d="M1158.6,431.4 C1205.7,453.4 1205.7,480.4 1252.9,502.4" fill="none" stroke="#9ca3af" stroke-width="1.0" opacity="0.12"/>
<path d="M1158.6,431.4 C1204.9,453.4 1204.9,598.4 1251.2,620.4" fill="none" stroke="#9ca3af" stroke-width="1.0" opacity="0.12"/>
<path d="M1158.6,431.4 C1157.6,453.4 1157.6,668.9 1156.6,690.9" fill="none" stroke="#9ca3af" stroke-width="1.0" opacity="0.12"/>
<path d="M1158.6,431.4 C1101.3,453.4 1101.3,704.3 1044.0,726.3" fill="none" stroke="#9ca3af" stroke-width="1.0" opacity="0.12"/>
<path d="M1252.9,502.4 C1090.1,480.4 1090.1,419.2 927.4,397.2" fill="none" stroke="#9ca3af" stroke-width="1.0" opacity="0.12"/>
<path d="M1252.9,502.4 C1149.1,480.4 1149.1,420.2 1045.4,398.2" fill="none" stroke="#9ca3af" stroke-width="1.0" opacity="0.12"/>
<path d="M1252.9,502.4 C1252.0,524.4 1252.0,598.4 1251.2,620.4" fill="none" stroke="#9ca3af" stroke-width="1.0" opacity="0.12"/>
<path d="M1252.9,502.4 C1204.7,524.4 1204.7,668.9 1156.6,690.9" fill="none" stroke="#9ca3af" stroke-width="1.0" opacity="0.12"/>
<path d="M1252.9,502.4 C1148.5,524.4 1148.5,704.3 1044.0,726.3" fill="none" stroke="#9ca3af" stroke-width="1.0" opacity="0.12"/>
<path d="M1252.9,502.4 C1089.5,524.4 1089.5,704.3 926.0,726.3" fill="none" stroke="#9ca3af" stroke-width="1.0" opacity="0.12"/>
<path d="M1251.2,620.4 C1089.3,598.4 1089.3,419.2 927.4,397.2" fill="none" stroke="#9ca3af" stroke-width="1.0" opacity="0.12"/>
<path d="M1251.2,620.4 C1148.3,598.4 1148.3,420.2 1045.4,398.2" fill="none" stroke="#9ca3af" stroke-width="1.0" opacity="0.12"/>
<path d="M1251.2,620.4 C1252.0,598.4 1252.0,524.4 1252.9,502.4" fill="none" stroke="#9ca3af" stroke-width="1.0" opacity="0.12"/>
<path d="M1251.2,620.4 C1203.9,642.4 1203.9,668.9 1156.6,690.9" fill="none" stroke="#9ca3af" stroke-width="1.0" opacity="0.12"/>
<path d="M1251.2,620.4 C1147.6,642.4 1147.6,704.3 1044.0,726.3" fill="none" stroke="#9ca3af" stroke-width="1.0" opacity="0.12"/>
<path d="M1251.2,620.4 C1088.6,642.4 1088.6,704.3 926.0,726.3" fill="none" stroke="#9ca3af" stroke-width="1.0" opacity="0.12"/>
<path d="M1251.2,620.4 C1032.3,642.4 1032.3,668.8 813.5,690.8" fill="none" stroke="#9ca3af" stroke-width="1.0" opacity="0.12"/>
<path d="M1156.6,690.9 C1042.0,668.9 1042.0,419.2 927.4,397.2" fill="none" stroke="#9ca3af" stroke-width="1.0" opacity="0.12"/>
<path d="M1156.6,690.9 C1204.7,668.9 1204.7,524.4 1252.9,502.4" fill="none" stroke="#9ca3af" stroke-width="1.0" opacity="0.12"/>
<path d="M1156.6,690.9 C1100.3,712.9 1100.3,704.3 1044.0,726.3" fill="none" stroke="#9ca3af" stroke-width="1.0" opacity="0.12"/>
<path d="M1156.6,690.9 C985.1,712.9 985.1,668.8 813.5,690.8" fill="none" stroke="#9ca3af" stroke-width="1.0" opacity="0.12"/>
<path d="M1044.0,726.3 C985.7,704.3 985.7,419.2 927.4,397.2" fill="none" stroke="#9ca3af" stroke-width="1.0" opacity="0.12"/>
<path d="M1044.0,726.3 C1044.7,704.3 1044.7,420.2 1045.4,398.2" fill="none" stroke="#9ca3af" stroke-width="1.0" opacity="0.12"/>
<path d="M1044.0,726.3 C1148.5,704.3 1148.5,524.4 1252.9,502.4" fill="none" stroke="#9ca3af" stroke-width="1.0" opacity="0.12"/>
<path d="M1044.0,726.3 C1147.6,704.3 1147.6,642.4 1251.2,620.4" fill="none" stroke="#9ca3af" stroke-width="1.0" opacity="0.12"/>
<path d="M1044.0,726.3 C1100.3,704.3 1100.3,712.9 1156.6,690.9" fill="none" stroke="#9ca3af" stroke-width="1.0" opacity="0.12"/>
<path d="M1044.0,726.3 C985.0,748.3 985.0,704.3 926.0,726.3" fill="none" stroke="#9ca3af" stroke-width="1.0" opacity="0.12"/>
<path d="M1044.0,726.3 C928.8,748.3 928.8,668.8 813.5,690.8" fill="none" stroke="#9ca3af" stroke-width="1.0" opacity="0.12"/>
<path d="M926.0,726.3 C985.7,704.3 985.7,420.2 1045.4,398.2" fill="none" stroke="#9ca3af" stroke-width="1.0" opacity="0.12"/>
<path d="M926.0,726.3 C1089.5,704.3 1089.5,524.4 1252.9,502.4" fill="none" stroke="#9ca3af" stroke-width="1.0" opacity="0.12"/>
<path d="M926.0,726.3 C1088.6,704.3 1088.6,642.4 1251.2,620.4" fill="none" stroke="#9ca3af" stroke-width="1.0" opacity="0.12"/>
<path d="M926.0,726.3 C1041.3,704.3 1041.3,712.9 1156.6,690.9" fill="none" stroke="#9ca3af" stroke-width="1.0" opacity="0.12"/>
<path d="M926.0,726.3 C985.0,704.3 985.0,748.3 1044.0,726.3" fill="none" stroke="#9ca3af" stroke-width="1.0" opacity="0.12"/>
<path d="M813.5,690.8 C1033.2,668.8 1033.2,524.4 1252.9,502.4" fill="none" stroke="#9ca3af" stroke-width="1.0" opacity="0.12"/>
<path d="M813.5,690.8 C1032.3,668.8 1032.3,642.4 1251.2,620.4" fill="none" stroke="#9ca3af" stroke-width="1.0" opacity="0.12"/>
<path d="M813.5,690.8 C928.8,668.8 928.8,748.3 1044.0,726.3" fill="none" stroke="#9ca3af" stroke-width="1.0" opacity="0.12"/>
</g>
<g id="route_edges">
<line x1="397.2" y1="557.0" x2="1131.0" y2="436.0" stroke="#111827" stroke-width="3.2" opacity="0.95"/>
<line x1="764.1" y1="496.5" x2="770.3" y2="534.0" stroke="#2b6cb0" stroke-width="0.9" opacity="0.65"/>
<rect x="698.3" y="521.0" width="144" height="22" rx="4" fill="#ffffff" stroke="#2b6cb0" stroke-width="1.2"/>
<text x="770.3" y="536.0" text-anchor="middle" font-size="11" font-family="Arial, sans-serif" fill="#111827">良  -63dBm  w=3</text>
<line x1="814.5" y1="460.0" x2="813.6" y2="662.8" stroke="#111827" stroke-width="3.2" opacity="0.95"/>
<line x1="814.1" y1="561.4" x2="852.1" y2="561.6" stroke="#b7791f" stroke-width="0.9" opacity="0.65"/>
<rect x="780.1" y="548.6" width="144" height="22" rx="4" fill="#ffffff" stroke="#b7791f" stroke-width="1.2"/>
<text x="852.1" y="563.6" text-anchor="middle" font-size="11" font-family="Arial, sans-serif" fill="#111827">中  -72dBm  w=6</text>
<line x1="954.0" y1="405.8" x2="1226.2" y2="493.8" stroke="#111827" stroke-width="3.2" opacity="0.95"/>
<line x1="1090.1" y1="449.8" x2="1101.8" y2="413.6" stroke="#b7791f" stroke-width="0.9" opacity="0.65"/>
<rect x="1029.8" y="400.6" width="144" height="22" rx="4" fill="#ffffff" stroke="#b7791f" stroke-width="1.2"/>
<text x="1101.8" y="415.6" text-anchor="middle" font-size="11" font-family="Arial, sans-serif" fill="#111827">中  -66dBm  w=6</text>
<line x1="950.4" y1="413.1" x2="1228.1" y2="604.5" stroke="#111827" stroke-width="3.2" opacity="0.95"/>
<line x1="1089.3" y1="508.8" x2="1057.5" y2="554.9" stroke="#b7791f" stroke-width="0.9" opacity="0.65"/>
<rect x="985.5" y="541.9" width="144" height="22" rx="4" fill="#ffffff" stroke="#b7791f" stroke-width="1.2"/>
<text x="1057.5" y="556.9" text-anchor="middle" font-size="11" font-family="Arial, sans-serif" fill="#111827">中  -75dBm  w=6</text>
<line x1="936.7" y1="423.6" x2="1034.7" y2="699.9" stroke="#111827" stroke-width="3.2" opacity="0.95"/>
<line x1="985.7" y1="561.8" x2="949.9" y2="574.5" stroke="#b7791f" stroke-width="0.9" opacity="0.65"/>
<rect x="877.9" y="561.5" width="144" height="22" rx="4" fill="#ffffff" stroke="#b7791f" stroke-width="1.2"/>
<text x="949.9" y="576.5" text-anchor="middle" font-size="11" font-family="Arial, sans-serif" fill="#111827">中  -74dBm  w=6</text>
<line x1="1017.4" y1="398.0" x2="955.4" y2="397.4" stroke="#111827" stroke-width="3.2" opacity="0.95"/>
<line x1="986.4" y1="397.7" x2="985.7" y2="471.7" stroke="#b7791f" stroke-width="0.9" opacity="0.65"/>
<rect x="913.7" y="458.7" width="144" height="22" rx="4" fill="#ffffff" stroke="#b7791f" stroke-width="1.2"/>
<text x="985.7" y="473.7" text-anchor="middle" font-size="11" font-family="Arial, sans-serif" fill="#111827">中  -72dBm  w=6</text>
<line x1="1055.3" y1="424.4" x2="1146.7" y2="664.8" stroke="#111827" stroke-width="3.2" opacity="0.95"/>
<line x1="1101.0" y1="544.6" x2="1170.2" y2="518.3" stroke="#b7791f" stroke-width="0.9" opacity="0.65"/>
<rect x="1098.2" y="505.3" width="144" height="22" rx="4" fill="#ffffff" stroke="#b7791f" stroke-width="1.2"/>
<text x="1170.2" y="520.3" text-anchor="middle" font-size="11" font-family="Arial, sans-serif" fill="#111827">中  -74dBm  w=6</text>
<line x1="1035.8" y1="424.5" x2="935.6" y2="700.0" stroke="#111827" stroke-width="3.2" opacity="0.95"/>
<line x1="985.7" y1="562.3" x2="1038.3" y2="581.4" stroke="#b7791f" stroke-width="0.9" opacity="0.65"/>
<rect x="966.3" y="568.4" width="144" height="22" rx="4" fill="#ffffff" stroke="#b7791f" stroke-width="1.2"/>
<text x="1038.3" y="583.4" text-anchor="middle" font-size="11" font-family="Arial, sans-serif" fill="#111827">中  -70dBm  w=6</text>
<line x1="1141.3" y1="453.4" x2="943.4" y2="704.4" stroke="#111827" stroke-width="3.2" opacity="0.95"/>
<line x1="1042.3" y1="578.9" x2="984.2" y2="533.1" stroke="#b7791f" stroke-width="0.9" opacity="0.65"/>
<rect x="912.2" y="520.1" width="144" height="22" rx="4" fill="#ffffff" stroke="#b7791f" stroke-width="1.2"/>
<text x="984.2" y="535.1" text-anchor="middle" font-size="11" font-family="Arial, sans-serif" fill="#111827">中  -75dBm  w=6</text>
<line x1="1136.2" y1="448.2" x2="835.9" y2="674.0" stroke="#111827" stroke-width="3.2" opacity="0.95"/>
<line x1="986.1" y1="561.1" x2="1019.7" y2="605.9" stroke="#c53030" stroke-width="0.9" opacity="0.65"/>
<rect x="947.7" y="592.9" width="144" height="22" rx="4" fill="#ffffff" stroke="#c53030" stroke-width="1.2"/>
<text x="1019.7" y="607.9" text-anchor="middle" font-size="11" font-family="Arial, sans-serif" fill="#111827">弱  -80dBm  w=12</text>
<line x1="1146.7" y1="664.8" x2="1055.3" y2="424.4" stroke="#111827" stroke-width="3.2" opacity="0.95"/>
<line x1="1101.0" y1="544.6" x2="1048.6" y2="564.5" stroke="#2b6cb0" stroke-width="0.9" opacity="0.65"/>
<rect x="976.6" y="551.5" width="144" height="22" rx="4" fill="#ffffff" stroke="#2b6cb0" stroke-width="1.2"/>
<text x="1048.6" y="566.5" text-anchor="middle" font-size="11" font-family="Arial, sans-serif" fill="#111827">良  -63dBm  w=3</text>
<line x1="916.1" y1="700.2" x2="824.6" y2="458.2" stroke="#111827" stroke-width="3.2" opacity="0.95"/>
<line x1="870.3" y1="579.2" x2="834.8" y2="592.6" stroke="#c53030" stroke-width="0.9" opacity="0.65"/>
<rect x="762.8" y="579.6" width="144" height="22" rx="4" fill="#ffffff" stroke="#c53030" stroke-width="1.2"/>
<text x="834.8" y="594.6" text-anchor="middle" font-size="11" font-family="Arial, sans-serif" fill="#111827">弱  -81dBm  w=12</text>
<line x1="823.6" y1="664.7" x2="917.3" y2="423.3" stroke="#111827" stroke-width="3.2" opacity="0.95"/>
<line x1="870.4" y1="544.0" x2="939.4" y2="570.7" stroke="#c53030" stroke-width="0.9" opacity="0.65"/>
<rect x="867.4" y="557.7" width="144" height="22" rx="4" fill="#ffffff" stroke="#c53030" stroke-width="1.2"/>
<text x="939.4" y="572.7" text-anchor="middle" font-size="11" font-family="Arial, sans-serif" fill="#111827">弱  -78dBm  w=12</text>
<line x1="830.9" y1="668.9" x2="1028.0" y2="420.1" stroke="#111827" stroke-width="3.2" opacity="0.95"/>
<line x1="929.4" y1="544.5" x2="973.3" y2="579.3" stroke="#c53030" stroke-width="0.9" opacity="0.65"/>
<rect x="901.3" y="566.3" width="144" height="22" rx="4" fill="#ffffff" stroke="#c53030" stroke-width="1.2"/>
<text x="973.3" y="581.3" text-anchor="middle" font-size="11" font-family="Arial, sans-serif" fill="#111827">弱  -80dBm  w=12</text>
<line x1="841.5" y1="690.8" x2="1128.6" y2="690.9" stroke="#111827" stroke-width="3.2" opacity="0.95"/>
<line x1="985.1" y1="690.9" x2="985.0" y2="728.9" stroke="#c53030" stroke-width="0.9" opacity="0.65"/>
<rect x="913.0" y="715.9" width="144" height="22" rx="4" fill="#ffffff" stroke="#c53030" stroke-width="1.2"/>
<text x="985.0" y="730.9" text-anchor="middle" font-size="11" font-family="Arial, sans-serif" fill="#111827">弱  -76dBm  w=12</text>
<line x1="840.2" y1="699.2" x2="899.3" y2="717.9" stroke="#111827" stroke-width="3.2" opacity="0.95"/>
<line x1="869.8" y1="708.6" x2="847.5" y2="779.1" stroke="#c53030" stroke-width="0.9" opacity="0.65"/>
<rect x="775.5" y="766.1" width="144" height="22" rx="4" fill="#ffffff" stroke="#c53030" stroke-width="1.2"/>
<text x="847.5" y="781.1" text-anchor="middle" font-size="11" font-family="Arial, sans-serif" fill="#111827">弱  -79dBm  w=12</text>
</g>
<g id="nodes">
<circle cx="369.6" cy="561.6" r="30" fill="#111827" stroke="#111827" stroke-width="3"/>
<text x="369.6" y="566.6" text-anchor="middle" font-size="15" font-family="Arial, sans-serif" fill="#ffffff" font-weight="700">00</text>
<circle cx="814.6" cy="432.0" r="25" fill="#ffffff" stroke="#111827" stroke-width="3"/>
<text x="814.6" y="437.0" text-anchor="middle" font-size="15" font-family="Arial, sans-serif" fill="#111827" font-weight="700">01</text>
<circle cx="927.4" cy="397.2" r="25" fill="#ffffff" stroke="#111827" stroke-width="3"/>
<text x="927.4" y="402.2" text-anchor="middle" font-size="15" font-family="Arial, sans-serif" fill="#111827" font-weight="700">02</text>
<circle cx="1045.4" cy="398.2" r="25" fill="#ffffff" stroke="#111827" stroke-width="3"/>
<text x="1045.4" y="403.2" text-anchor="middle" font-size="15" font-family="Arial, sans-serif" fill="#111827" font-weight="700">03</text>
<circle cx="1158.6" cy="431.4" r="25" fill="#ffffff" stroke="#111827" stroke-width="3"/>
<text x="1158.6" y="436.4" text-anchor="middle" font-size="15" font-family="Arial, sans-serif" fill="#111827" font-weight="700">04</text>
<circle cx="1252.9" cy="502.4" r="25" fill="#ffffff" stroke="#111827" stroke-width="3"/>
<text x="1252.9" y="507.4" text-anchor="middle" font-size="15" font-family="Arial, sans-serif" fill="#111827" font-weight="700">05</text>
<circle cx="1251.2" cy="620.4" r="25" fill="#ffffff" stroke="#111827" stroke-width="3"/>
<text x="1251.2" y="625.4" text-anchor="middle" font-size="15" font-family="Arial, sans-serif" fill="#111827" font-weight="700">06</text>
<circle cx="1156.6" cy="690.9" r="25" fill="#ffffff" stroke="#111827" stroke-width="3"/>
<text x="1156.6" y="695.9" text-anchor="middle" font-size="15" font-family="Arial, sans-serif" fill="#111827" font-weight="700">07</text>
<circle cx="1044.0" cy="726.3" r="25" fill="#ffffff" stroke="#111827" stroke-width="3"/>
<text x="1044.0" y="731.3" text-anchor="middle" font-size="15" font-family="Arial, sans-serif" fill="#111827" font-weight="700">08</text>
<circle cx="926.0" cy="726.3" r="25" fill="#ffffff" stroke="#111827" stroke-width="3"/>
<text x="926.0" y="731.3" text-anchor="middle" font-size="15" font-family="Arial, sans-serif" fill="#111827" font-weight="700">09</text>
<circle cx="813.5" cy="690.8" r="25" fill="#ffffff" stroke="#111827" stroke-width="3"/>
<text x="813.5" y="695.8" text-anchor="middle" font-size="15" font-family="Arial, sans-serif" fill="#111827" font-weight="700">0A</text>
</g>
</svg>
