<svg xmlns="http://www.w3.org/2000/svg" width="1680" height="1080" viewBox="0 0 1680 1080" role="img" aria-label="Dijkstra layered RSSI topology">
<rect width="100%" height="100%" fill="#ffffff"/>
<text x="42" y="46" font-size="24" font-family="Arial, sans-serif" fill="#111827" font-weight="700">Dijkstra RSSI Layered Topology</text>
<text x="42" y="74" font-size="13" font-family="Arial, sans-serif" fill="#4b5563">图中不显示箭头；深色线为选中的有向最短路径链路，浅灰线为未使用的 RSSI 观测链路。</text>
<line x1="42" y1="108" x2="76" y2="108" stroke="#238b45" stroke-width="4" stroke-linecap="round"/>
<text x="84" y="113" font-size="12" font-family="Arial, sans-serif" fill="#374151">&gt;= -55 dBm</text>
<line x1="174" y1="108" x2="208" y2="108" stroke="#2b6cb0" stroke-width="4" stroke-linecap="round"/>
<text x="216" y="113" font-size="12" font-family="Arial, sans-serif" fill="#374151">-56~-65</text>
<line x1="306" y1="108" x2="340" y2="108" stroke="#b7791f" stroke-width="4" stroke-linecap="round"/>
<text x="348" y="113" font-size="12" font-family="Arial, sans-serif" fill="#374151">-66~-75</text>
<line x1="438" y1="108" x2="472" y2="108" stroke="#c53030" stroke-width="4" stroke-linecap="round"/>
<text x="480" y="113" font-size="12" font-family="Arial, sans-serif" fill="#374151">-76~-85</text>
<line x1="570" y1="108" x2="604" y2="108" stroke="#111827" stroke-width="4" stroke-linecap="round"/>
<text x="612" y="113" font-size="12" font-family="Arial, sans-serif" fill="#374151">route</text>
<g id="observed_edges">
<path d="M369.6,561.6 C811.2,583.6 811.2,480.4 1252.9,502.4" fill="none" stroke="#9ca3af" stroke-width="1.0" opacity="0.12"/>
<path d="M814.6,432.0 C871.0,454.0 871.0,375.2 927.4,397.2" fill="none" stroke="#9ca3af" stroke-width="1.0" opacity="0.12"/>
<path d="M814.6,432.0 C930.0,454.0 930.0,376.2 1045.4,398.2" fill="none" stroke="#9ca3af" stroke-width="1.0" opacity="0.12"/>
<path d="M814.6,432.0 C1032.9,454.0 1032.9,598.4 1251.2,620.4" fill="none" stroke="#9ca3af" stroke-width="1.0" opacity="0.12"/>
<path d="M814.6,432.0 C985.6,454.0 985.6,668.9 1156.6,690.9" fill="none" stroke="#9ca3af" stroke-width="1.0" opacity="0.12"/>
<path d="M814.6,432.0 C929.3,454.0 929.3,704.3 1044.0,726.3" fill="none" stroke="#9ca3af" stroke-width="1.0" opacity="0.12"/>
<path d="M814.6,432.0 C870.3,454.0 870.3,704.3 926.0,726.3" fill="none" stroke="#9ca3af" stroke-width="1.0" opacity="0.12"/>
<path d="M814.6,432.0 C814.1,454.0 814.1,668.8 813.5,690.8" fill="none" stroke="#9ca3af" stroke-width="1.0" opacity="0.12"/>
<path d="M927.4,397.2 C986.4,419.2 986.4,376.2 1045.4,398.2" fill="none" stroke="#9ca3af" stroke-width="1.0" opacity="0.12"/>
<path d="M927.4,397.2 C1089.3,419.2 1089.3,598.4 1251.2,620.4" fill="none" stroke="#9ca3af" stroke-width="1.0" opacity="0.12"/>
<path d="M927.4,397.2 C985.7,419.2 985.7,704.3 1044.0,726.3" fill="none" stroke="#9ca3af" stroke-width="1.0" opacity="0.12"/>
<path d="M927.4,397.2 C926.7,419.2 926.7,704.3 926.0,726.3" fill="none" stroke="#9ca3af" stroke-width="1.0" opacity="0.12"/>
<path d="M1045.4,398.2 C986.4,376.2 986.4,419.2 927.4,397.2" fill="none" stroke="#9ca3af" stroke-width="1.0" opacity="0.12"/>
<path d="M1045.4,398.2 C1148.3,420.2 1148.3,598.4 1251.2,620.4" fill="none" stroke="#9ca3af" stroke-width="1.0" opacity="0.12"/>
<path d="M1045.4,398.2 C1101.0,420.2 1101.0,668.9 1156.6,690.9" fill="none" stroke="#9ca3af" stroke-width="1.0" opacity="0.12"/>
<path d="M1158.6,431.4 C986.6,409.4 986.6,454.0 814.6,432.0" fill="none" stroke="#9ca3af" stroke-width="1.0" opacity="0.12"/>
<path d="M1158.6,431.4 C1102.0,409.4 1102.0,420.2 1045.4,398.2" fill="none" stroke="#9ca3af" stroke-width="1.0" opacity="0.12"/>
<path d="M1158.6,431.4 C1204.9,453.4 1204.9,598.4 1251.2,620.4" fill="none" stroke="#9ca3af" stroke-width="1.0" opacity="0.12"/>
<path d="M1158.6,431.4 C1157.6,453.4 1157.6,668.9 1156.6,690.9" fill="none" stroke="#9ca3af" stroke-width="1.0" opacity="0.12"/>
<path d="M1158.6,431.4 C1101.3,453.4 1101.3,704.3 1044.0,726.3" fill="none" stroke="#9ca3af" stroke-width="1.0" opacity="0.12"/>
<path d="M1158.6,431.4 C1042.3,453.4 1042.3,704.3 926.0,726.3" fill="none" stroke="#9ca3af" stroke-width="1.0" opacity="0.12"/>
<path d="M1158.6,431.4 C986.1,453.4 986.1,668.8 813.5,690.8" fill="none" stroke="#9ca3af" stroke-width="1.0" opacity="0.12"/>
<path d="M1252.9,502.4 C1090.1,480.4 1090.1,419.2 927.4,397.2" fill="none" stroke="#9ca3af" stroke-width="1.0" opacity="0.12"/>
<path d="M1252.9,502.4 C1204.7,524.4 1204.7,668.9 1156.6,690.9" fill="none" stroke="#9ca3af" stroke-width="1.0" opacity="0.12"/>
<path d="M1252.9,502.4 C1033.2,524.4 1033.2,668.8 813.5,690.8" fill="none" stroke="#9ca3af" stroke-width="1.0" opacity="0.12"/>
<path d="M1251.2,620.4 C1089.3,598.4 1089.3,419.2 927.4,397.2" fill="none" stroke="#9ca3af" stroke-width="1.0" opacity="0.12"/>
<path d="M1251.2,620.4 C1252.0,598.4 1252.0,524.4 1252.9,502.4" fill="none" stroke="#9ca3af" stroke-width="1.0" opacity="0.12"/>
<path d="M1251.2,620.4 C1203.9,642.4 1203.9,668.9 1156.6,690.9" fill="none" stroke="#9ca3af" stroke-width="1.0" opacity="0.12"/>
<path d="M1251.2,620.4 C1147.6,642.4 1147.6,704.3 1044.0,726.3" fill="none" stroke="#9ca3af" stroke-width="1.0" opacity="0.12"/>
<path d="M1251.2,620.4 C1088.6,642.4 1088.6,704.3 926.0,726.3" fill="none" stroke="#9ca3af" stroke-width="1.0" opacity="0.12"/>
<path d="M1156.6,690.9 C1042.0,668.9 1042.0,419.2 927.4,397.2" fill="none" stroke="#9ca3af" stroke-width="1.0" opacity="0.12"/>
<path d="M1156.6,690.9 C1101.0,668.9 1101.0,420.2 1045.4,398.2" fill="none" stroke="#9ca3af" stroke-width="1.0" opacity="0.12"/>
<path d="M1156.6,690.9 C1204.7,668.9 1204.7,524.4 1252.9,502.4" fill="none" stroke="#9ca3af" stroke-width="1.0" opacity="0.12"/>
<path d="M1156.6,690.9 C1203.9,668.9 1203.9,642.4 1251.2,620.4" fill="none" stroke="#9ca3af" stroke-width="1.0" opacity="0.12"/>
<path d="M1156.6,690.9 C1100.3,712.9 1100.3,704.3 1044.0,726.3" fill="none" stroke="#9ca3af" stroke-width="1.0" opacity="0.12"/>
<path d="M1156.6,690.9 C1041.3,712.9 1041.3,704.3 926.0,726.3" fill="none" stroke="#9ca3af" stroke-width="1.0" opacity="0.12"/>
<path d="M1156.6,690.9 C985.1,712.9 985.1,668.8 813.5,690.8" fill="none" stroke="#9ca3af" stroke-width="1.0" opacity="0.12"/>
<path d="M1044.0,726.3 C1044.7,704.3 1044.7,420.2 1045.4,398.2" fill="none" stroke="#9ca3af" stroke-width="1.0" opacity="0.12"/>
<path d="M1044.0,726.3 C1147.6,704.3 1147.6,642.4 1251.2,620.4" fill="none" stroke="#9ca3af" stroke-width="1.0" opacity="0.12"/>
<path d="M1044.0,726.3 C1100.3,704.3 1100.3,712.9 1156.6,690.9" fill="none" stroke="#9ca3af" stroke-width="1.0" opacity="0.12"/>
<path d="M1044.0,726.3 C928.8,748.3 928.8,668.8 813.5,690.8" fill="none" stroke="#9ca3af" stroke-width="1.0" opacity="0.12"/>
<path d="M926.0,726.3 C985.7,704.3 985.7,420.2 1045.4,398.2" fill="none" stroke="#9ca3af" stroke-width="1.0" opacity="0.12"/>
<path d="M926.0,726.3 C1088.6,704.3 1088.6,642.4 1251.2,620.4" fill="none" stroke="#9ca3af" stroke-width="1.0" opacity="0.12"/>
<path d="M926.0,726.3 C1041.3,704.3 1041.3,712.9 1156.6,690.9" fill="none" stroke="#9ca3af" stroke-width="1.0" opacity="0.12"/>
<path d="M926.0,726.3 C985.0,704.3 985.0,748.3 1044.0,726.3" fill="none" stroke="#9ca3af" stroke-width="1.0" opacity="0.12"/>
<path d="M813.5,690.8 C1033.2,668.8 1033.2,524.4 1252.9,502.4" fill="none" stroke="#9ca3af" stroke-width="1.0" opacity="0.12"/>
<path d="M813.5,690.8 C869.8,668.8 869.8,748.3 926.0,726.3" fill="none" stroke="#9ca3af" stroke-width="1.0" opacity="0.12"/>
</g>
<g id="route_edges">
<line x1="396.8" y1="555.0" x2="1018.2" y2="404.8" stroke="#111827" stroke-width="3.2" opacity="0.95"/>
<line x1="707.5" y1="479.9" x2="716.4" y2="516.8" stroke="#2b6cb0" stroke-width="0.9" opacity="0.65"/>
<rect x="644.4" y="503.8" width="144" height="22" rx="4" fill="#ffffff" stroke="#2b6cb0" stroke-width="1.2"/>
<text x="716.4" y="518.8" text-anchor="middle" font-size="11" font-family="Arial, sans-serif" fill="#111827">良  -62dBm  w=3</text>
<line x1="396.4" y1="569.5" x2="899.2" y2="718.4" stroke="#111827" stroke-width="3.2" opacity="0.95"/>
<line x1="647.8" y1="644.0" x2="626.8" y2="714.9" stroke="#b7791f" stroke-width="0.9" opacity="0.65"/>
<rect x="554.8" y="701.9" width="144" height="22" rx="4" fill="#ffffff" stroke="#b7791f" stroke-width="1.2"/>
<text x="626.8" y="716.9" text-anchor="middle" font-size="11" font-family="Arial, sans-serif" fill="#111827">中  -74dBm  w=6</text>
<line x1="944.6" y1="419.3" x2="1139.4" y2="668.9" stroke="#111827" stroke-width="3.2" opacity="0.95"/>
<line x1="1042.0" y1="544.1" x2="1100.3" y2="498.5" stroke="#b7791f" stroke-width="0.9" opacity="0.65"/>
<rect x="1028.3" y="485.5" width="144" height="22" rx="4" fill="#ffffff" stroke="#b7791f" stroke-width="1.2"/>
<text x="1100.3" y="500.5" text-anchor="middle" font-size="11" font-family="Arial, sans-serif" fill="#111827">中  -74dBm  w=6</text>
<line x1="917.3" y1="423.3" x2="823.6" y2="664.7" stroke="#111827" stroke-width="3.2" opacity="0.95"/>
<line x1="870.4" y1="544.0" x2="818.2" y2="523.7" stroke="#c53030" stroke-width="0.9" opacity="0.65"/>
<rect x="746.2" y="510.7" width="144" height="22" rx="4" fill="#ffffff" stroke="#c53030" stroke-width="1.2"/>
<text x="818.2" y="525.7" text-anchor="middle" font-size="11" font-family="Arial, sans-serif" fill="#111827">弱  -85dBm  w=12</text>
<line x1="1017.7" y1="402.3" x2="842.3" y2="428.0" stroke="#111827" stroke-width="3.2" opacity="0.95"/>
<line x1="930.0" y1="415.1" x2="935.5" y2="452.7" stroke="#c53030" stroke-width="0.9" opacity="0.65"/>
<rect x="863.5" y="439.7" width="144" height="22" rx="4" fill="#ffffff" stroke="#c53030" stroke-width="1.2"/>
<text x="935.5" y="454.7" text-anchor="middle" font-size="11" font-family="Arial, sans-serif" fill="#111827">弱  -85dBm  w=12</text>
<line x1="1072.2" y1="406.1" x2="1131.7" y2="423.5" stroke="#111827" stroke-width="3.2" opacity="0.95"/>
<line x1="1102.0" y1="414.8" x2="1081.2" y2="485.8" stroke="#c53030" stroke-width="0.9" opacity="0.65"/>
<rect x="1009.2" y="472.8" width="144" height="22" rx="4" fill="#ffffff" stroke="#c53030" stroke-width="1.2"/>
<text x="1081.2" y="487.8" text-anchor="middle" font-size="11" font-family="Arial, sans-serif" fill="#111827">弱  -77dBm  w=12</text>
<line x1="1070.4" y1="410.8" x2="1227.8" y2="489.8" stroke="#111827" stroke-width="3.2" opacity="0.95"/>
<line x1="1149.1" y1="450.3" x2="1166.2" y2="416.3" stroke="#c53030" stroke-width="0.9" opacity="0.65"/>
<rect x="1094.2" y="403.3" width="144" height="22" rx="4" fill="#ffffff" stroke="#c53030" stroke-width="1.2"/>
<text x="1166.2" y="418.3" text-anchor="middle" font-size="11" font-family="Arial, sans-serif" fill="#111827">弱  -84dBm  w=12</text>
<line x1="1045.3" y1="426.2" x2="1044.1" y2="698.3" stroke="#111827" stroke-width="3.2" opacity="0.95"/>
<line x1="1044.7" y1="562.3" x2="988.7" y2="562.0" stroke="#b7791f" stroke-width="0.9" opacity="0.65"/>
<rect x="916.7" y="549.0" width="144" height="22" rx="4" fill="#ffffff" stroke="#b7791f" stroke-width="1.2"/>
<text x="988.7" y="564.0" text-anchor="middle" font-size="11" font-family="Arial, sans-serif" fill="#111827">中  -72dBm  w=6</text>
<line x1="1035.8" y1="424.5" x2="935.6" y2="700.0" stroke="#111827" stroke-width="3.2" opacity="0.95"/>
<line x1="985.7" y1="562.3" x2="1038.3" y2="581.4" stroke="#c53030" stroke-width="0.9" opacity="0.65"/>
<rect x="966.3" y="568.4" width="144" height="22" rx="4" fill="#ffffff" stroke="#c53030" stroke-width="1.2"/>
<text x="1038.3" y="583.4" text-anchor="middle" font-size="11" font-family="Arial, sans-serif" fill="#111827">弱  -79dBm  w=12</text>
<line x1="1028.0" y1="420.1" x2="830.9" y2="668.9" stroke="#111827" stroke-width="3.2" opacity="0.95"/>
<line x1="929.4" y1="544.5" x2="973.3" y2="579.3" stroke="#c53030" stroke-width="0.9" opacity="0.65"/>
<rect x="901.3" y="566.3" width="144" height="22" rx="4" fill="#ffffff" stroke="#c53030" stroke-width="1.2"/>
<text x="973.3" y="581.3" text-anchor="middle" font-size="11" font-family="Arial, sans-serif" fill="#111827">弱  -81dBm  w=12</text>
<line x1="1232.1" y1="599.8" x2="1064.4" y2="418.7" stroke="#111827" stroke-width="3.2" opacity="0.95"/>
<line x1="1148.3" y1="509.3" x2="1107.2" y2="547.3" stroke="#b7791f" stroke-width="0.9" opacity="0.65"/>
<rect x="1035.2" y="534.3" width="144" height="22" rx="4" fill="#ffffff" stroke="#b7791f" stroke-width="1.2"/>
<text x="1107.2" y="549.3" text-anchor="middle" font-size="11" font-family="Arial, sans-serif" fill="#111827">中  -71dBm  w=6</text>
<line x1="1034.7" y1="699.9" x2="936.7" y2="423.6" stroke="#111827" stroke-width="3.2" opacity="0.95"/>
<line x1="985.7" y1="561.8" x2="916.0" y2="586.5" stroke="#b7791f" stroke-width="0.9" opacity="0.65"/>
<rect x="844.0" y="573.5" width="144" height="22" rx="4" fill="#ffffff" stroke="#b7791f" stroke-width="1.2"/>
<text x="916.0" y="588.5" text-anchor="middle" font-size="11" font-family="Arial, sans-serif" fill="#111827">中  -74dBm  w=6</text>
<line x1="926.1" y1="698.3" x2="927.3" y2="425.2" stroke="#111827" stroke-width="3.2" opacity="0.95"/>
<line x1="926.7" y1="561.8" x2="888.7" y2="561.6" stroke="#c53030" stroke-width="0.9" opacity="0.65"/>
<rect x="816.7" y="548.6" width="144" height="22" rx="4" fill="#ffffff" stroke="#c53030" stroke-width="1.2"/>
<text x="888.7" y="563.6" text-anchor="middle" font-size="11" font-family="Arial, sans-serif" fill="#111827">弱  -79dBm  w=12</text>
<line x1="823.6" y1="664.7" x2="917.3" y2="423.3" stroke="#111827" stroke-width="3.2" opacity="0.95"/>
<line x1="870.4" y1="544.0" x2="922.7" y2="564.2" stroke="#c53030" stroke-width="0.9" opacity="0.65"/>
<rect x="850.7" y="551.2" width="144" height="22" rx="4" fill="#ffffff" stroke="#c53030" stroke-width="1.2"/>
<text x="922.7" y="566.2" text-anchor="middle" font-size="11" font-family="Arial, sans-serif" fill="#111827">弱  -84dBm  w=12</text>
<line x1="830.9" y1="668.9" x2="1028.0" y2="420.1" stroke="#111827" stroke-width="3.2" opacity="0.95"/>
<line x1="929.4" y1="544.5" x2="987.4" y2="590.5" stroke="#b7791f" stroke-width="0.9" opacity="0.65"/>
<rect x="915.4" y="577.5" width="144" height="22" rx="4" fill="#ffffff" stroke="#b7791f" stroke-width="1.2"/>
<text x="987.4" y="592.5" text-anchor="middle" font-size="11" font-family="Arial, sans-serif" fill="#111827">中  -74dBm  w=6</text>
<line x1="841.2" y1="686.4" x2="1223.5" y2="624.8" stroke="#111827" stroke-width="3.2" opacity="0.95"/>
<line x1="1032.3" y1="655.6" x2="1038.4" y2="693.1" stroke="#c53030" stroke-width="0.9" opacity="0.65"/>
<rect x="966.4" y="680.1" width="144" height="22" rx="4" fill="#ffffff" stroke="#c53030" stroke-width="1.2"/>
<text x="1038.4" y="695.1" text-anchor="middle" font-size="11" font-family="Arial, sans-serif" fill="#111827">弱  -79dBm  w=12</text>
<line x1="841.2" y1="695.1" x2="1016.4" y2="722.1" stroke="#111827" stroke-width="3.2" opacity="0.95"/>
<line x1="928.8" y1="708.6" x2="923.0" y2="746.1" stroke="#c53030" stroke-width="0.9" opacity="0.65"/>
<rect x="851.0" y="733.1" width="144" height="22" rx="4" fill="#ffffff" stroke="#c53030" stroke-width="1.2"/>
<text x="923.0" y="748.1" text-anchor="middle" font-size="11" font-family="Arial, sans-serif" fill="#111827">弱  -79dBm  w=12</text>
</g>
<g id="nodes">
<circle cx="369.6" cy="561.6" r="30" fill="#111827" stroke="#111827" stroke-width="3"/>
<text x="369.6" y="566.6" text-anchor="middle" font-size="15" font-family="Arial, sans-serif" fill="#ffffff" font-weight="700">00</text>
<circle cx="814.6" cy="432.0" r="25" fill="#ffffff" stroke="#111827" stroke-width="3"/>
<text x="814.6" y="437.0" text-anchor="middle" font-size="15" font-family="Arial, sans-serif" fill="#111827" font-weight="700">01</text>
<circle cx="927.4" cy="397.2" r="25" fill="#ffffff" stroke="#111827" stroke-width="3"/>
<text x="927.4" y="402.2" text-anchor="middle" font-size="15" font-family="Arial, sans-serif" fill="#111827" font-weight="700">02</text>
<circle cx="1045.4" cy="398.2" r="25" fill="#ffffff" stroke="#111827" stroke-width="3"/>
<text x="1045.4" y="403.2" text-anchor="middle" font-size="15" font-family="Arial, sans-serif" fill="#111827" font-weight="700">03</text>
<circle cx="1158.6" cy="431.4" r="25" fill="#ffffff" stroke="#111827" stroke-width="3"/>
<text x="1158.6" y="436.4" text-anchor="middle" font-size="15" font-family="Arial, sans-serif" fill="#111827" font-weight="700">04</text>
<circle cx="1252.9" cy="502.4" r="25" fill="#ffffff" stroke="#111827" stroke-width="3"/>
<text x="1252.9" y="507.4" text-anchor="middle" font-size="15" font-family="Arial, sans-serif" fill="#111827" font-weight="700">05</text>
<circle cx="1251.2" cy="620.4" r="25" fill="#ffffff" stroke="#111827" stroke-width="3"/>
<text x="1251.2" y="625.4" text-anchor="middle" font-size="15" font-family="Arial, sans-serif" fill="#111827" font-weight="700">06</text>
<circle cx="1156.6" cy="690.9" r="25" fill="#ffffff" stroke="#111827" stroke-width="3"/>
<text x="1156.6" y="695.9" text-anchor="middle" font-size="15" font-family="Arial, sans-serif" fill="#111827" font-weight="700">07</text>
<circle cx="1044.0" cy="726.3" r="25" fill="#ffffff" stroke="#111827" stroke-width="3"/>
<text x="1044.0" y="731.3" text-anchor="middle" font-size="15" font-family="Arial, sans-serif" fill="#111827" font-weight="700">08</text>
<circle cx="926.0" cy="726.3" r="25" fill="#ffffff" stroke="#111827" stroke-width="3"/>
<text x="926.0" y="731.3" text-anchor="middle" font-size="15" font-family="Arial, sans-serif" fill="#111827" font-weight="700">09</text>
<circle cx="813.5" cy="690.8" r="25" fill="#ffffff" stroke="#111827" stroke-width="3"/>
<text x="813.5" y="695.8" text-anchor="middle" font-size="15" font-family="Arial, sans-serif" fill="#111827" font-weight="700">10</text>
</g>
</svg>
